<?xml version="1.0" encoding="UTF-8" standalone="no"?>
<!-- Created with Inkscape (http://www.inkscape.org/) -->

<svg
   xmlns:dc="http://purl.org/dc/elements/1.1/"
   xmlns:cc="http://creativecommons.org/ns#"
   xmlns:rdf="http://www.w3.org/1999/02/22-rdf-syntax-ns#"
   xmlns:svg="http://www.w3.org/2000/svg"
   xmlns="http://www.w3.org/2000/svg"
   xmlns:sodipodi="http://sodipodi.sourceforge.net/DTD/sodipodi-0.dtd"
   xmlns:inkscape="http://www.inkscape.org/namespaces/inkscape"
   width="181.00964mm"
   height="87.727386mm"
   viewBox="0 0 181.00964 87.727386"
   version="1.1"
   id="svg824"
   inkscape:version="0.92.2 2405546, 2018-03-11"
   sodipodi:docname="juno_colours.svg">
  <defs
     id="defs818">
    <inkscape:path-effect
       effect="skeletal"
       id="path-effect1678-4"
       is_visible="true"
       pattern="m -390.97475,89.416288 c 0.81614,-2.3842 40.82457,-2.6451 61.26553,-2.6451 20.44095,0 59.64173,0.0655 61.26552,2.6451 -1.43276,2.38853 -40.82457,2.6451 -61.26552,2.6451 -20.44096,0 -60.653,-0.34473 -61.26553,-2.6451 z"
       copytype="single_stretched"
       prop_scale="0.58068953"
       scale_y_rel="false"
       spacing="0"
       normal_offset="0"
       tang_offset="0"
       prop_units="false"
       vertical_pattern="false"
       fuse_tolerance="0" />
    <inkscape:path-effect
       effect="skeletal"
       id="path-effect1662-2"
       is_visible="true"
       pattern="m -390.97475,89.416288 c 0.81614,-2.3842 40.82457,-2.6451 61.26553,-2.6451 20.44095,0 59.64173,0.0655 61.26552,2.6451 -1.43276,2.38853 -40.82457,2.6451 -61.26552,2.6451 -20.44096,0 -60.653,-0.34473 -61.26553,-2.6451 z"
       copytype="single_stretched"
       prop_scale="0.58068953"
       scale_y_rel="false"
       spacing="0"
       normal_offset="0"
       tang_offset="0"
       prop_units="false"
       vertical_pattern="false"
       fuse_tolerance="0" />
    <inkscape:path-effect
       effect="skeletal"
       id="path-effect1650-6"
       is_visible="true"
       pattern="m -390.97475,89.416288 c 0.81614,-2.3842 40.82457,-2.6451 61.26553,-2.6451 20.44095,0 59.64173,0.0655 61.26552,2.6451 -1.43276,2.38853 -40.82457,2.6451 -61.26552,2.6451 -20.44096,0 -60.653,-0.34473 -61.26553,-2.6451 z"
       copytype="single_stretched"
       prop_scale="0.58068953"
       scale_y_rel="false"
       spacing="0"
       normal_offset="0"
       tang_offset="0"
       prop_units="false"
       vertical_pattern="false"
       fuse_tolerance="0" />
    <inkscape:path-effect
       effect="skeletal"
       id="path-effect1678-4-9"
       is_visible="true"
       pattern="m -345.25852,89.794269 c 0.81614,-2.3842 40.82457,-2.6451 61.26553,-2.6451 20.44095,0 59.64173,0.0655 61.26552,2.6451 -1.43276,2.38853 -40.82457,2.6451 -61.26552,2.6451 -20.44096,0 -60.653,-0.34473 -61.26553,-2.6451 z"
       copytype="single_stretched"
       prop_scale="0.58068953"
       scale_y_rel="false"
       spacing="0"
       normal_offset="0"
       tang_offset="0"
       prop_units="false"
       vertical_pattern="false"
       fuse_tolerance="0" />
    <inkscape:path-effect
       effect="skeletal"
       id="path-effect1662-2-7"
       is_visible="true"
       pattern="m -345.25852,89.794269 c 0.81614,-2.3842 40.82457,-2.6451 61.26553,-2.6451 20.44095,0 59.64173,0.0655 61.26552,2.6451 -1.43276,2.38853 -40.82457,2.6451 -61.26552,2.6451 -20.44096,0 -60.653,-0.34473 -61.26553,-2.6451 z"
       copytype="single_stretched"
       prop_scale="0.58068953"
       scale_y_rel="false"
       spacing="0"
       normal_offset="0"
       tang_offset="0"
       prop_units="false"
       vertical_pattern="false"
       fuse_tolerance="0" />
    <inkscape:path-effect
       effect="skeletal"
       id="path-effect1650-6-2"
       is_visible="true"
       pattern="m -345.25852,89.794269 c 0.81614,-2.3842 40.82457,-2.6451 61.26553,-2.6451 20.44095,0 59.64173,0.0655 61.26552,2.6451 -1.43276,2.38853 -40.82457,2.6451 -61.26552,2.6451 -20.44096,0 -60.653,-0.34473 -61.26553,-2.6451 z"
       copytype="single_stretched"
       prop_scale="0.58068953"
       scale_y_rel="false"
       spacing="0"
       normal_offset="0"
       tang_offset="0"
       prop_units="false"
       vertical_pattern="false"
       fuse_tolerance="0" />
    <inkscape:path-effect
       effect="skeletal"
       id="path-effect1678-4-9-7"
       is_visible="true"
       pattern="m -233.39279,151.75677 c 0.81614,-2.3842 40.82457,-2.6451 61.26553,-2.6451 20.44095,0 59.64173,0.0655 61.26552,2.6451 -1.43276,2.38853 -40.82457,2.6451 -61.26552,2.6451 -20.44096,0 -60.653,-0.34473 -61.26553,-2.6451 z"
       copytype="single_stretched"
       prop_scale="0.58068953"
       scale_y_rel="false"
       spacing="0"
       normal_offset="0"
       tang_offset="0"
       prop_units="false"
       vertical_pattern="false"
       fuse_tolerance="0" />
    <inkscape:path-effect
       effect="skeletal"
       id="path-effect1662-2-7-3"
       is_visible="true"
       pattern="m -234.9803,151.75677 c 0.81614,-2.3842 40.82457,-2.6451 61.26553,-2.6451 20.44095,0 59.64173,0.0655 61.26552,2.6451 -1.43276,2.38853 -40.82457,2.6451 -61.26552,2.6451 -20.44096,0 -60.653,-0.34473 -61.26553,-2.6451 z"
       copytype="single_stretched"
       prop_scale="0.58068953"
       scale_y_rel="false"
       spacing="0"
       normal_offset="0"
       tang_offset="0"
       prop_units="false"
       vertical_pattern="false"
       fuse_tolerance="0" />
    <inkscape:path-effect
       effect="skeletal"
       id="path-effect1650-6-2-0"
       is_visible="true"
       pattern="m -233.39279,151.75677 c 0.81614,-2.3842 40.82457,-2.6451 61.26553,-2.6451 20.44095,0 59.64173,0.0655 61.26552,2.6451 -1.43276,2.38853 -40.82457,2.6451 -61.26552,2.6451 -20.44096,0 -60.653,-0.34473 -61.26553,-2.6451 z"
       copytype="single_stretched"
       prop_scale="0.58068953"
       scale_y_rel="false"
       spacing="0"
       normal_offset="0"
       tang_offset="0"
       prop_units="false"
       vertical_pattern="false"
       fuse_tolerance="0" />
    <inkscape:path-effect
       effect="skeletal"
       id="path-effect1678-4-3"
       is_visible="true"
       pattern="m -279.10903,151.90795 c 0.81614,-2.3842 40.82457,-2.6451 61.26553,-2.6451 20.44095,0 59.64173,0.0655 61.26552,2.6451 -1.43276,2.38853 -40.82457,2.6451 -61.26552,2.6451 -20.44096,0 -60.653,-0.34473 -61.26553,-2.6451 z"
       copytype="single_stretched"
       prop_scale="0.58068953"
       scale_y_rel="false"
       spacing="0"
       normal_offset="0"
       tang_offset="0"
       prop_units="false"
       vertical_pattern="false"
       fuse_tolerance="0" />
    <inkscape:path-effect
       effect="skeletal"
       id="path-effect1662-2-9"
       is_visible="true"
       pattern="m -277.52152,151.37878 c 0.81614,-2.3842 40.82457,-2.6451 61.26553,-2.6451 20.44095,0 59.64173,0.0655 61.26552,2.6451 -1.43276,2.38853 -40.82457,2.6451 -61.26552,2.6451 -20.44096,0 -60.653,-0.34473 -61.26553,-2.6451 z"
       copytype="single_stretched"
       prop_scale="0.58068953"
       scale_y_rel="false"
       spacing="0"
       normal_offset="0"
       tang_offset="0"
       prop_units="false"
       vertical_pattern="false"
       fuse_tolerance="0" />
    <inkscape:path-effect
       effect="skeletal"
       id="path-effect1650-6-4"
       is_visible="true"
       pattern="m -279.10903,151.37878 c 0.81614,-2.3842 40.82457,-2.6451 61.26553,-2.6451 20.44095,0 59.64173,0.0655 61.26552,2.6451 -1.43276,2.38853 -40.82457,2.6451 -61.26552,2.6451 -20.44096,0 -60.653,-0.34473 -61.26553,-2.6451 z"
       copytype="single_stretched"
       prop_scale="0.58068953"
       scale_y_rel="false"
       spacing="0"
       normal_offset="0"
       tang_offset="0"
       prop_units="false"
       vertical_pattern="false"
       fuse_tolerance="0" />
    <inkscape:path-effect
       effect="skeletal"
       id="path-effect1678-4-9-7-8"
       is_visible="true"
       pattern="m -73.120219,214.00979 c 0.81614,-2.3842 40.82457,-2.6451 61.265525,-2.6451 20.4409509,0 59.64173,0.0655 61.26552,2.6451 -1.43276,2.38853 -40.8245691,2.6451 -61.26552,2.6451 -20.440955,0 -60.652995,-0.34473 -61.265525,-2.6451 z"
       copytype="single_stretched"
       prop_scale="0.58068953"
       scale_y_rel="false"
       spacing="0"
       normal_offset="0"
       tang_offset="0"
       prop_units="false"
       vertical_pattern="false"
       fuse_tolerance="0" />
    <inkscape:path-effect
       effect="skeletal"
       id="path-effect1662-2-9-6"
       is_visible="true"
       pattern="m -117.24896,213.6318 c 0.81614,-2.3842 40.824581,-2.6451 61.265541,-2.6451 20.44095,0 59.6417263,0.0655 61.2655163,2.6451 -1.43276,2.38853 -40.8245663,2.6451 -61.2655163,2.6451 -20.44096,0 -60.653011,-0.34473 -61.265541,-2.6451 z"
       copytype="single_stretched"
       prop_scale="0.58068953"
       scale_y_rel="false"
       spacing="0"
       normal_offset="0"
       tang_offset="0"
       prop_units="false"
       vertical_pattern="false"
       fuse_tolerance="0" />
    <inkscape:path-effect
       effect="skeletal"
       id="path-effect1650-6-2-0-2"
       is_visible="true"
       pattern="m -73.120219,214.00979 c 0.81614,-2.3842 40.82457,-2.6451 61.265525,-2.6451 20.4409509,0 59.64173,0.0655 61.26552,2.6451 -1.43276,2.38853 -40.8245691,2.6451 -61.26552,2.6451 -20.440955,0 -60.652995,-0.34473 -61.265525,-2.6451 z"
       copytype="single_stretched"
       prop_scale="0.58068953"
       scale_y_rel="false"
       spacing="0"
       normal_offset="0"
       tang_offset="0"
       prop_units="false"
       vertical_pattern="false"
       fuse_tolerance="0" />
    <inkscape:path-effect
       effect="skeletal"
       id="path-effect1678-4-9-7-8-7"
       is_visible="true"
       pattern="m -51.83986,336.68119 c 0.81614,-2.3842 40.824572,-2.6451 61.2655315,-2.6451 20.4409505,0 59.6417295,0.0655 61.2655195,2.6451 -1.43276,2.38853 -40.824569,2.6451 -61.2655195,2.6451 -20.4409595,0 -60.6530015,-0.34473 -61.2655315,-2.6451 z"
       copytype="single_stretched"
       prop_scale="0.1440885"
       scale_y_rel="false"
       spacing="0"
       normal_offset="0"
       tang_offset="0"
       prop_units="false"
       vertical_pattern="false"
       fuse_tolerance="0" />
    <inkscape:path-effect
       effect="skeletal"
       id="path-effect1662-2-9-6-4"
       is_visible="true"
       pattern="m -95.96859,336.3032 c 0.81614,-2.3842 40.82457,-2.6451 61.265532,-2.6451 20.44095,0 59.64173,0.0655 61.26552,2.6451 -1.43276,2.38853 -40.82457,2.6451 -61.26552,2.6451 -20.440962,0 -60.653002,-0.34473 -61.265532,-2.6451 z"
       copytype="single_stretched"
       prop_scale="0.1440885"
       scale_y_rel="false"
       spacing="0"
       normal_offset="0"
       tang_offset="0"
       prop_units="false"
       vertical_pattern="false"
       fuse_tolerance="0" />
    <inkscape:path-effect
       effect="skeletal"
       id="path-effect1650-6-2-0-2-3"
       is_visible="true"
       pattern="m -51.83986,336.68119 c 0.81614,-2.3842 40.824572,-2.6451 61.2655315,-2.6451 20.4409505,0 59.6417295,0.0655 61.2655195,2.6451 -1.43276,2.38853 -40.824569,2.6451 -61.2655195,2.6451 -20.4409595,0 -60.6530015,-0.34473 -61.2655315,-2.6451 z"
       copytype="single_stretched"
       prop_scale="0.1440885"
       scale_y_rel="false"
       spacing="0"
       normal_offset="0"
       tang_offset="0"
       prop_units="false"
       vertical_pattern="false"
       fuse_tolerance="0" />
    <inkscape:path-effect
       effect="skeletal"
       id="path-effect1678-4-9-7-1"
       is_visible="true"
       pattern="m -212.11241,274.42817 c 0.81614,-2.3842 40.82457,-2.6451 61.26553,-2.6451 20.44095,0 59.64172,0.0655 61.26551,2.6451 -1.43276,2.38853 -40.82456,2.6451 -61.26551,2.6451 -20.44096,0 -60.653,-0.34473 -61.26553,-2.6451 z"
       copytype="single_stretched"
       prop_scale="0.1440885"
       scale_y_rel="false"
       spacing="0"
       normal_offset="0"
       tang_offset="0"
       prop_units="false"
       vertical_pattern="false"
       fuse_tolerance="0" />
    <inkscape:path-effect
       effect="skeletal"
       id="path-effect1662-2-9-2"
       is_visible="true"
       pattern="m -256.24114,274.05018 c 0.81614,-2.3842 40.82457,-2.6451 61.26553,-2.6451 20.44095,0 59.64173,0.0655 61.26552,2.6451 -1.43276,2.38853 -40.82457,2.6451 -61.26552,2.6451 -20.44096,0 -60.653,-0.34473 -61.26553,-2.6451 z"
       copytype="single_stretched"
       prop_scale="0.1440885"
       scale_y_rel="false"
       spacing="0"
       normal_offset="0"
       tang_offset="0"
       prop_units="false"
       vertical_pattern="false"
       fuse_tolerance="0" />
    <inkscape:path-effect
       effect="skeletal"
       id="path-effect1650-6-2-0-4"
       is_visible="true"
       pattern="m -212.11241,274.42817 c 0.81614,-2.3842 40.82457,-2.6451 61.26553,-2.6451 20.44095,0 59.64172,0.0655 61.26551,2.6451 -1.43276,2.38853 -40.82456,2.6451 -61.26551,2.6451 -20.44096,0 -60.653,-0.34473 -61.26553,-2.6451 z"
       copytype="single_stretched"
       prop_scale="0.1440885"
       scale_y_rel="false"
       spacing="0"
       normal_offset="0"
       tang_offset="0"
       prop_units="false"
       vertical_pattern="false"
       fuse_tolerance="0" />
    <inkscape:path-effect
       effect="skeletal"
       id="path-effect1678-4-9-75"
       is_visible="true"
       pattern="m -323.97814,212.46567 c 0.81614,-2.3842 40.82457,-2.6451 61.26553,-2.6451 20.44095,0 59.64173,0.0655 61.26552,2.6451 -1.43276,2.38853 -40.82457,2.6451 -61.26552,2.6451 -20.44096,0 -60.653,-0.34473 -61.26553,-2.6451 z"
       copytype="single_stretched"
       prop_scale="0.1440885"
       scale_y_rel="false"
       spacing="0"
       normal_offset="0"
       tang_offset="0"
       prop_units="false"
       vertical_pattern="false"
       fuse_tolerance="0" />
    <inkscape:path-effect
       effect="skeletal"
       id="path-effect1662-2-7-5"
       is_visible="true"
       pattern="m -323.97814,212.46567 c 0.81614,-2.3842 40.82457,-2.6451 61.26553,-2.6451 20.44095,0 59.64173,0.0655 61.26552,2.6451 -1.43276,2.38853 -40.82457,2.6451 -61.26552,2.6451 -20.44096,0 -60.653,-0.34473 -61.26553,-2.6451 z"
       copytype="single_stretched"
       prop_scale="0.1440885"
       scale_y_rel="false"
       spacing="0"
       normal_offset="0"
       tang_offset="0"
       prop_units="false"
       vertical_pattern="false"
       fuse_tolerance="0" />
    <inkscape:path-effect
       effect="skeletal"
       id="path-effect1650-6-2-8"
       is_visible="true"
       pattern="m -323.97814,212.46567 c 0.81614,-2.3842 40.82457,-2.6451 61.26553,-2.6451 20.44095,0 59.64173,0.0655 61.26552,2.6451 -1.43276,2.38853 -40.82457,2.6451 -61.26552,2.6451 -20.44096,0 -60.653,-0.34473 -61.26553,-2.6451 z"
       copytype="single_stretched"
       prop_scale="0.1440885"
       scale_y_rel="false"
       spacing="0"
       normal_offset="0"
       tang_offset="0"
       prop_units="false"
       vertical_pattern="false"
       fuse_tolerance="0" />
    <inkscape:path-effect
       effect="skeletal"
       id="path-effect1678-4-0"
       is_visible="true"
       pattern="m -369.69437,212.08769 c 0.81614,-2.3842 40.82457,-2.6451 61.26553,-2.6451 20.44095,0 59.64173,0.0655 61.26552,2.6451 -1.43276,2.38853 -40.82457,2.6451 -61.26552,2.6451 -20.44096,0 -60.653,-0.34473 -61.26553,-2.6451 z"
       copytype="single_stretched"
       prop_scale="0.1440885"
       scale_y_rel="false"
       spacing="0"
       normal_offset="0"
       tang_offset="0"
       prop_units="false"
       vertical_pattern="false"
       fuse_tolerance="0" />
    <inkscape:path-effect
       effect="skeletal"
       id="path-effect1662-2-77"
       is_visible="true"
       pattern="m -369.69437,212.08769 c 0.81614,-2.3842 40.82457,-2.6451 61.26553,-2.6451 20.44095,0 59.64173,0.0655 61.26552,2.6451 -1.43276,2.38853 -40.82457,2.6451 -61.26552,2.6451 -20.44096,0 -60.653,-0.34473 -61.26553,-2.6451 z"
       copytype="single_stretched"
       prop_scale="0.1440885"
       scale_y_rel="false"
       spacing="0"
       normal_offset="0"
       tang_offset="0"
       prop_units="false"
       vertical_pattern="false"
       fuse_tolerance="0" />
    <inkscape:path-effect
       effect="skeletal"
       id="path-effect1650-6-3"
       is_visible="true"
       pattern="m -369.69437,212.08769 c 0.81614,-2.3842 40.82457,-2.6451 61.26553,-2.6451 20.44095,0 59.64173,0.0655 61.26552,2.6451 -1.43276,2.38853 -40.82457,2.6451 -61.26552,2.6451 -20.44096,0 -60.653,-0.34473 -61.26553,-2.6451 z"
       copytype="single_stretched"
       prop_scale="0.1440885"
       scale_y_rel="false"
       spacing="0"
       normal_offset="0"
       tang_offset="0"
       prop_units="false"
       vertical_pattern="false"
       fuse_tolerance="0" />
    <inkscape:path-effect
       effect="skeletal"
       id="path-effect1678-4-9-7-8-6"
       is_visible="true"
       pattern="m -10.527055,319.67226 c 0.8161396,-2.3842 40.82457,-2.6451 61.265529,-2.6451 20.44095,0 59.641736,0.0655 61.265526,2.6451 -1.43276,2.38853 -40.824576,2.6451 -61.265526,2.6451 -20.440959,0 -60.6529994,-0.34473 -61.265529,-2.6451 z"
       copytype="single_stretched"
       prop_scale="0.31011988"
       scale_y_rel="false"
       spacing="0"
       normal_offset="0"
       tang_offset="0"
       prop_units="false"
       vertical_pattern="false"
       fuse_tolerance="0" />
    <inkscape:path-effect
       effect="skeletal"
       id="path-effect1662-2-9-6-1"
       is_visible="true"
       pattern="m -54.655796,319.29427 c 0.81614,-2.3842 40.824581,-2.6451 61.2655405,-2.6451 20.4409505,0 59.6417295,0.0655 61.2655195,2.6451 -1.43276,2.38853 -40.824569,2.6451 -61.2655195,2.6451 -20.4409595,0 -60.6530105,-0.34473 -61.2655405,-2.6451 z"
       copytype="single_stretched"
       prop_scale="0.31011988"
       scale_y_rel="false"
       spacing="0"
       normal_offset="0"
       tang_offset="0"
       prop_units="false"
       vertical_pattern="false"
       fuse_tolerance="0" />
    <inkscape:path-effect
       effect="skeletal"
       id="path-effect1650-6-2-0-2-1"
       is_visible="true"
       pattern="m -11.585389,319.67226 c 0.81614,-2.3842 40.82457,-2.6451 61.265529,-2.6451 20.44095,0 59.64173,0.0655 61.26552,2.6451 -1.43276,2.38853 -40.82457,2.6451 -61.26552,2.6451 -20.440959,0 -60.652999,-0.34473 -61.265529,-2.6451 z"
       copytype="single_stretched"
       prop_scale="0.31011988"
       scale_y_rel="false"
       spacing="0"
       normal_offset="0"
       tang_offset="0"
       prop_units="false"
       vertical_pattern="false"
       fuse_tolerance="0" />
    <inkscape:path-effect
       effect="skeletal"
       id="path-effect1678-4-9-7-2"
       is_visible="true"
       pattern="m -170.79962,257.41924 c 0.81614,-2.3842 40.82457,-2.6451 61.26553,-2.6451 20.440951,0 59.641724,0.0655 61.265514,2.6451 -1.43276,2.38853 -40.824563,2.6451 -61.265514,2.6451 -20.44096,0 -60.653,-0.34473 -61.26553,-2.6451 z"
       copytype="single_stretched"
       prop_scale="0.31011988"
       scale_y_rel="false"
       spacing="0"
       normal_offset="0"
       tang_offset="0"
       prop_units="false"
       vertical_pattern="false"
       fuse_tolerance="0" />
    <inkscape:path-effect
       effect="skeletal"
       id="path-effect1662-2-9-8"
       is_visible="true"
       pattern="m -214.92835,257.04125 c 0.81614,-2.3842 40.82457,-2.6451 61.26553,-2.6451 20.44095,0 59.641731,0.0655 61.265521,2.6451 -1.43276,2.38853 -40.824571,2.6451 -61.265521,2.6451 -20.44096,0 -60.653,-0.34473 -61.26553,-2.6451 z"
       copytype="single_stretched"
       prop_scale="0.31011988"
       scale_y_rel="false"
       spacing="0"
       normal_offset="0"
       tang_offset="0"
       prop_units="false"
       vertical_pattern="false"
       fuse_tolerance="0" />
    <inkscape:path-effect
       effect="skeletal"
       id="path-effect1650-6-2-0-8"
       is_visible="true"
       pattern="m -171.85796,257.41924 c 0.81614,-2.3842 40.82457,-2.6451 61.26553,-2.6451 20.440951,0 59.64173,0.0655 61.26552,2.6451 -1.43276,2.38853 -40.824569,2.6451 -61.26552,2.6451 -20.44096,0 -60.653,-0.34473 -61.26553,-2.6451 z"
       copytype="single_stretched"
       prop_scale="0.31011988"
       scale_y_rel="false"
       spacing="0"
       normal_offset="0"
       tang_offset="0"
       prop_units="false"
       vertical_pattern="false"
       fuse_tolerance="0" />
    <inkscape:path-effect
       effect="skeletal"
       id="path-effect1678-4-9-71"
       is_visible="true"
       pattern="m -282.66535,195.45674 c 0.81614,-2.3842 40.82457,-2.6451 61.26553,-2.6451 20.44095,0 59.64173,0.0655 61.26552,2.6451 -1.43276,2.38853 -40.82457,2.6451 -61.26552,2.6451 -20.44096,0 -60.653,-0.34473 -61.26553,-2.6451 z"
       copytype="single_stretched"
       prop_scale="0.31011988"
       scale_y_rel="false"
       spacing="0"
       normal_offset="0"
       tang_offset="0"
       prop_units="false"
       vertical_pattern="false"
       fuse_tolerance="0" />
    <inkscape:path-effect
       effect="skeletal"
       id="path-effect1662-2-7-0"
       is_visible="true"
       pattern="m -282.66535,195.45674 c 0.81614,-2.3842 40.82457,-2.6451 61.26553,-2.6451 20.44095,0 59.64173,0.0655 61.26552,2.6451 -1.43276,2.38853 -40.82457,2.6451 -61.26552,2.6451 -20.44096,0 -60.653,-0.34473 -61.26553,-2.6451 z"
       copytype="single_stretched"
       prop_scale="0.31011988"
       scale_y_rel="false"
       spacing="0"
       normal_offset="0"
       tang_offset="0"
       prop_units="false"
       vertical_pattern="false"
       fuse_tolerance="0" />
    <inkscape:path-effect
       effect="skeletal"
       id="path-effect1650-6-2-1"
       is_visible="true"
       pattern="m -283.72369,195.45674 c 0.81614,-2.3842 40.82457,-2.6451 61.26553,-2.6451 20.44095,0 59.64173,0.0655 61.26552,2.6451 -1.43276,2.38853 -40.82457,2.6451 -61.26552,2.6451 -20.44096,0 -60.653,-0.34473 -61.26553,-2.6451 z"
       copytype="single_stretched"
       prop_scale="0.31011988"
       scale_y_rel="false"
       spacing="0"
       normal_offset="0"
       tang_offset="0"
       prop_units="false"
       vertical_pattern="false"
       fuse_tolerance="0" />
    <inkscape:path-effect
       effect="skeletal"
       id="path-effect1678-4-07"
       is_visible="true"
       pattern="m -328.38158,195.07875 c 0.81614,-2.3842 40.82457,-2.6451 61.26553,-2.6451 20.44095,0 59.64173,0.0655 61.26552,2.6451 -1.43276,2.38853 -40.82457,2.6451 -61.26552,2.6451 -20.44096,0 -60.653,-0.34473 -61.26553,-2.6451 z"
       copytype="single_stretched"
       prop_scale="0.31011988"
       scale_y_rel="false"
       spacing="0"
       normal_offset="0"
       tang_offset="0"
       prop_units="false"
       vertical_pattern="false"
       fuse_tolerance="0" />
    <inkscape:path-effect
       effect="skeletal"
       id="path-effect1662-2-90"
       is_visible="true"
       pattern="m -328.38158,195.07875 c 0.81614,-2.3842 40.82457,-2.6451 61.26553,-2.6451 20.44095,0 59.64173,0.0655 61.26552,2.6451 -1.43276,2.38853 -40.82457,2.6451 -61.26552,2.6451 -20.44096,0 -60.653,-0.34473 -61.26553,-2.6451 z"
       copytype="single_stretched"
       prop_scale="0.31011988"
       scale_y_rel="false"
       spacing="0"
       normal_offset="0"
       tang_offset="0"
       prop_units="false"
       vertical_pattern="false"
       fuse_tolerance="0" />
    <inkscape:path-effect
       effect="skeletal"
       id="path-effect1650-6-7"
       is_visible="true"
       pattern="m -329.43992,195.07875 c 0.81614,-2.3842 40.82457,-2.6451 61.26553,-2.6451 20.44095,0 59.64173,0.0655 61.26552,2.6451 -1.43276,2.38853 -40.82457,2.6451 -61.26552,2.6451 -20.44096,0 -60.653,-0.34473 -61.26553,-2.6451 z"
       copytype="single_stretched"
       prop_scale="0.31011988"
       scale_y_rel="false"
       spacing="0"
       normal_offset="0"
       tang_offset="0"
       prop_units="false"
       vertical_pattern="false"
       fuse_tolerance="0" />
  </defs>
  <sodipodi:namedview
     id="base"
     pagecolor="#ffffff"
     bordercolor="#666666"
     borderopacity="1.0"
     inkscape:pageopacity="0.0"
     inkscape:pageshadow="2"
     inkscape:zoom="1.4"
     inkscape:cx="260.6176"
     inkscape:cy="181.71213"
     inkscape:document-units="mm"
     inkscape:current-layer="layer1"
     showgrid="false"
     fit-margin-top="2"
     fit-margin-left="2"
     fit-margin-right="2"
     fit-margin-bottom="2"
     inkscape:window-width="2560"
     inkscape:window-height="1412"
     inkscape:window-x="0"
     inkscape:window-y="28"
     inkscape:window-maximized="1" />
  <metadata
     id="metadata821">
    <rdf:RDF>
      <cc:Work
         rdf:about="">
        <dc:format>image/svg+xml</dc:format>
        <dc:type
           rdf:resource="http://purl.org/dc/dcmitype/StillImage" />
        <dc:title></dc:title>
      </cc:Work>
    </rdf:RDF>
  </metadata>
  <g
     inkscape:label="Layer 1"
     inkscape:groupmode="layer"
     id="layer1"
     transform="translate(-18.901962,-59.206543)">
    <path
       inkscape:original-d="m 38.448911,64.555562 c -1.70166,-1.411875 -3.29761,-2.170059 -4.57984,-2.073892 -0.3414,0.02561 -0.65713,0.109739 -0.95054,0.259237 -3.12965,1.594639 -2.12984,9.841894 2.23808,18.414425 4.36792,8.572534 10.44569,14.228093 13.57534,12.633454 3.00975,-1.533541 2.19741,-9.218515 -1.75416,-17.429327"
       inkscape:path-effect="#path-effect1650-6"
       inkscape:connector-curvature="0"
       d="m 38.448911,64.555562 c -0.365743,0.239012 -2.317879,-1.680084 -4.5091,-1.130783 -0.206092,0.04096 -0.405682,0.112127 -0.561012,0.21946 -0.45956,0.221397 -0.69087,0.895625 -0.909756,1.720257 -0.232103,1.137218 -0.131802,2.378344 0.06864,3.807617 0.58641,3.936161 2.126768,7.703887 3.970836,11.294389 1.05021,2.012935 2.059398,3.70351 3.087551,5.18467 1.010669,1.455973 2.282254,3.053369 3.851611,4.517033 0.957036,0.875034 1.950051,1.708456 3.022518,2.138963 0.691822,0.212972 1.337434,0.415221 1.597709,0.178355 0,0 0,-10e-7 0,-10e-7 0.336192,-0.04823 0.59306,-0.638673 0.848219,-1.278892 0.327125,-1.041412 0.311594,-2.276102 0.243039,-3.495046 -0.387379,-5.961782 -2.658381,-10.663819 -2.181377,-11.352133 0.517653,0.02448 3.837802,4.432041 4.752573,11.089375 0.195478,1.345425 0.26514,2.886508 -0.111552,4.482333 -0.219518,1.13382 -0.915699,2.341525 -2.234523,3.137897 -2e-6,-10e-7 -3e-6,10e-7 -3e-6,10e-7 -1.466705,0.647611 -2.936689,0.508049 -4.038115,-0.0071 -1.60657,-0.658389 -2.910644,-1.66847 -3.971004,-2.666688 -1.782376,-1.648712 -3.19686,-3.405804 -4.301776,-4.9868 -1.11898,-1.601118 -2.205515,-3.432712 -3.265577,-5.565922 -1.904497,-3.774662 -3.455253,-7.953961 -3.877577,-12.35381 -0.163768,-1.581099 -0.13537,-3.158126 0.28617,-4.678042 0.28771,-1.229954 1.07836,-2.347872 2.250313,-2.956562 0.449957,-0.201254 0.905422,-0.290811 1.332964,-0.297623 4.006035,0.09847 4.514414,3.27322 4.649231,2.999019 z"
       style="fill:#aa79c1;fill-opacity:1;stroke:#9558b2;stroke-width:0.69999999;stroke-linecap:square;stroke-linejoin:round;stroke-miterlimit:1;stroke-dasharray:none;stroke-dashoffset:0;stroke-opacity:1"
       id="path1000-5" />
    <path
       inkscape:original-d="m 54.124081,82.978628 c 2.48711,-0.964824 4.01644,-2.285431 4.09593,-3.802134 0.18383,-3.50768 -7.44976,-6.755083 -17.05776,-7.258618 -0.90075,-0.04721 -1.78647,-0.07205 -2.65285,-0.06913 -8.37499,0.02819 -14.91232,2.32562 -15.07892,5.504452 -0.0793,1.513728 1.29978,2.981534 3.66388,4.19963"
       inkscape:path-effect="#path-effect1662-2"
       inkscape:connector-curvature="0"
       d="m 54.124081,82.978628 c -0.03558,-0.274826 0.475815,-0.681456 1.302943,-1.345509 0.730577,-0.586536 1.976881,-1.545208 1.707433,-2.513517 0.0377,-0.479685 -0.427318,-0.994938 -1.015198,-1.585264 -0.864015,-0.764876 -1.990739,-1.294552 -3.302831,-1.828992 -4.005215,-1.589072 -8.305408,-2.062478 -11.730798,-2.253383 0,0 -0.0038,-2.1e-4 -0.0038,-2.1e-4 -1e-6,0 -1e-6,0 -2e-6,0 -0.7934,-0.04147 -1.662759,-0.07059 -2.567291,-0.06935 0,0 -10e-7,0 -10e-7,0 -3.279039,0.01739 -6.843571,0.25623 -10.146474,1.356736 -1.138639,0.392142 -2.108648,0.783897 -2.857053,1.379734 -0.524838,0.465383 -0.937881,0.884512 -0.956344,1.293235 -0.367913,0.886562 0.693597,1.929443 1.346884,2.596708 0.73557,0.75131 1.208777,1.229752 1.192796,1.544023 -0.180105,0.148006 -0.9342,0.130819 -1.982206,-0.385989 -0.959038,-0.472935 -2.549407,-1.606966 -2.759429,-3.870121 0.06405,-1.218395 0.648043,-2.322009 1.522827,-3.070706 1.041184,-0.953922 2.273614,-1.609556 3.551538,-2.094026 3.710933,-1.443287 7.638756,-1.802657 11.077139,-1.814128 0,0 1e-6,0 1e-6,0 0.9764,-0.0068 1.901235,0.02214 2.738394,0.06613 0,0 10e-7,0 10e-7,0 10e-7,0 0.004,1.96e-4 0.004,1.96e-4 3.585308,0.17702 8.253242,0.767764 12.657914,2.763903 1.435007,0.636579 2.804559,1.451523 3.930785,2.597034 0.929032,0.867206 1.51122,2.133351 1.451396,3.487267 -0.451927,2.282518 -2.227673,3.244165 -3.229545,3.603374 -1.112284,0.398795 -1.821393,0.321312 -1.933077,0.142855 z"
       style="fill:#60ad51;fill-opacity:1;stroke:#389826;stroke-width:0.69999999;stroke-linecap:round;stroke-miterlimit:4;stroke-dasharray:none;stroke-opacity:1"
       id="path1002-5" />
    <path
       inkscape:original-d="m 51.436661,69.783495 c 0.5842,-2.973326 0.2575,-5.22988 -1.12335,-6.12662 -0.46029,-0.298911 -1.01214,-0.429713 -1.6332,-0.406137 -3.35376,0.127323 -8.76519,4.745085 -13.1865,11.553302 -5.24006,8.069002 -7.10224,16.155737 -4.15642,18.068777 1.39834,0.908093 3.62659,0.264364 6.1439,-1.529495"
       inkscape:path-effect="#path-effect1678-4"
       inkscape:label="path3773"
       inkscape:connector-curvature="0"
       d="m 51.436661,69.783495 c -0.26384,-0.124896 -0.326122,-0.854355 -0.431403,-2.056248 -0.09298,-1.061512 -0.208775,-2.847246 -1.301818,-3.131246 -10e-7,0 -10e-7,0 -10e-7,-10e-7 -0.236456,-0.136404 -0.589019,-0.16149 -0.977323,-0.133449 -10e-7,10e-7 -10e-7,0 -10e-7,0 -1.794942,0.08568 -3.351546,1.519945 -5.293999,3.146236 -2.829688,2.557276 -5.022381,5.534112 -6.650323,8.031807 -1.1e-5,1.6e-5 -0.02809,0.0436 -0.0281,0.04362 -1.856996,2.885128 -3.968887,6.636841 -5.009022,10.784617 -0.328938,1.365733 -0.558299,2.590043 -0.440161,3.730834 0.137962,0.800965 0.276334,1.470295 0.668157,1.694604 0.674757,0.873104 2.302266,0.278303 3.330418,-0.0725 1.157785,-0.395037 1.884776,-0.644778 2.178096,-0.478509 0.04862,0.238207 -0.376039,0.986093 -1.455126,1.778501 -0.985457,0.723652 -2.975985,1.75411 -5.299191,0.690877 -1.153464,-0.774158 -1.828015,-2.007855 -1.976188,-3.263519 -0.260339,-1.599703 -0.105962,-3.191989 0.225417,-4.717357 0.983655,-4.711713 3.235144,-8.807898 5.199481,-11.818567 -1.7e-5,2.6e-5 0.02987,-0.04573 0.02985,-0.04571 1.70651,-2.636754 4.115274,-5.820737 7.343909,-8.524033 1.943747,-1.747107 4.296756,-3.300565 7.08546,-3.386312 0.795459,-0.01638 1.594494,0.214924 2.278108,0.67643 1.928475,1.694722 1.768062,3.959278 1.511248,5.123267 -0.285805,1.295388 -0.771037,1.926535 -0.987494,1.926657 z"
       style="opacity:1;fill:#d5635c;fill-opacity:1;stroke:#cb3c33;stroke-width:0.69999999;stroke-linecap:round;stroke-miterlimit:4;stroke-dasharray:none;stroke-opacity:1"
       id="path1004-0" />
    <path
       inkscape:original-d="m 84.165137,64.933539 c -1.70166,-1.41188 -3.29761,-2.17006 -4.57984,-2.07389 -0.3414,0.0256 -0.65713,0.10974 -0.95054,0.25923 -3.12965,1.59464 -2.12984,9.8419 2.23808,18.41443 4.36792,8.57253 10.44569,14.22809 13.575335,12.63345 3.00975,-1.53354 2.19741,-9.21851 -1.75416,-17.42932"
       inkscape:path-effect="#path-effect1650-6-2"
       inkscape:connector-curvature="0"
       d="m 84.165137,64.933539 c -0.365743,0.239011 -2.317883,-1.680087 -4.509113,-1.13078 -0.20606,0.04094 -0.405639,0.112119 -0.561008,0.219457 -0.459558,0.221396 -0.690865,0.895623 -0.909747,1.720254 -0.232103,1.137218 -0.131802,2.378345 0.06864,3.807618 0.58641,3.936162 2.126767,7.703889 3.970836,11.294391 1.05021,2.012934 2.059397,3.703507 3.08755,5.184667 1.010669,1.455972 2.282254,3.053369 3.851611,4.517033 0.957036,0.875034 1.950051,1.708456 3.022517,2.138963 0.691822,0.212971 1.337433,0.41522 1.597705,0.178355 0,0 10e-7,-10e-7 10e-7,-10e-7 0.336192,-0.04823 0.59306,-0.638674 0.848219,-1.278892 0.327125,-1.041411 0.311594,-2.276101 0.243039,-3.495044 -0.38738,-5.961785 -2.658385,-10.663824 -2.181382,-11.352139 0.517653,0.02448 3.837807,4.432044 4.752578,11.089381 0.195478,1.345424 0.26514,2.886507 -0.111552,4.482331 -0.219518,1.13382 -0.915699,2.341525 -2.234523,3.137895 -10e-7,0 -3e-6,2e-6 -3e-6,2e-6 -1.466704,0.647612 -2.936687,0.50805 -4.038112,-0.0071 -1.60657,-0.658389 -2.910643,-1.668471 -3.971003,-2.666689 -1.782375,-1.648712 -3.19686,-3.405804 -4.301776,-4.986799 -1.118979,-1.601118 -2.205514,-3.43271 -3.265576,-5.565919 -1.904497,-3.774662 -3.455254,-7.953962 -3.877577,-12.353811 -0.163768,-1.5811 -0.13537,-3.158128 0.28617,-4.678044 0.287714,-1.229957 1.078367,-2.347877 2.250323,-2.956569 0.449926,-0.201238 0.905391,-0.290803 1.332966,-0.297612 4.006029,0.09846 4.5144,3.273222 4.649219,2.999018 z"
       style="fill:#6682e0;fill-opacity:1;stroke:#4063d8;stroke-width:0.69999999;stroke-linecap:square;stroke-linejoin:round;stroke-miterlimit:1;stroke-dasharray:none;stroke-dashoffset:0;stroke-opacity:1"
       id="path1000-5-5" />
    <path
       inkscape:original-d="m 99.840292,83.356609 c 2.487118,-0.96483 4.016458,-2.28544 4.095938,-3.80214 0.18383,-3.50768 -7.449758,-6.75508 -17.057753,-7.25862 -0.90075,-0.0472 -1.78647,-0.0721 -2.65285,-0.0691 -8.37499,0.0282 -14.91232,2.32562 -15.07892,5.50446 -0.0793,1.51372 1.29978,2.98153 3.66388,4.19963"
       inkscape:path-effect="#path-effect1662-2-7"
       inkscape:connector-curvature="0"
       d="m 99.840292,83.356609 c -0.03558,-0.274826 0.475818,-0.681458 1.302948,-1.345513 0.73058,-0.586538 1.97689,-1.545211 1.70743,-2.513516 0.0377,-0.479685 -0.42731,-0.994939 -1.01519,-1.585266 -0.86402,-0.764876 -1.99074,-1.294552 -3.302831,-1.828992 -4.00521,-1.589071 -8.305396,-2.062478 -11.73078,-2.253386 0,0 -0.0038,-2.1e-4 -0.0038,-2.1e-4 -10e-7,0 -10e-7,0 -10e-7,0 -0.793366,-0.04145 -1.662983,-0.07065 -2.567228,-0.06932 0,0 -2e-6,0 -2e-6,0 -3.279062,0.0174 -6.84362,0.256235 -10.146545,1.35674 -1.13864,0.392142 -2.108648,0.783898 -2.857053,1.379735 -0.524839,0.465382 -0.937881,0.884513 -0.956345,1.293238 -0.367913,0.886559 0.693596,1.929439 1.346882,2.596705 0.735568,0.751309 1.208774,1.229752 1.192793,1.544022 -0.180106,0.148007 -0.9342,0.130818 -1.982204,-0.38599 -0.959036,-0.472934 -2.549403,-1.606963 -2.759425,-3.870116 0.06405,-1.218395 0.648042,-2.32201 1.522827,-3.070708 1.041184,-0.953923 2.273614,-1.609557 3.551538,-2.094027 3.710911,-1.443286 7.638707,-1.802658 11.077067,-1.814133 0,0 2e-6,0 2e-6,0 0.976434,-0.0069 1.901513,0.02213 2.738457,0.0661 0,0 10e-7,0 10e-7,0 0,0 0.004,1.96e-4 0.004,1.96e-4 3.585307,0.177022 8.25324,0.767767 12.657912,2.763906 1.435007,0.636578 2.804557,1.451523 3.930787,2.597033 0.92903,0.867204 1.51122,2.133348 1.45139,3.487263 -0.45192,2.282529 -2.22767,3.244177 -3.22955,3.603384 -1.11228,0.398795 -1.821394,0.321311 -1.933078,0.142855 z"
       style="fill:#aa79c1;fill-opacity:1;stroke:#9558b2;stroke-width:0.69999999;stroke-linecap:round;stroke-miterlimit:4;stroke-dasharray:none;stroke-opacity:1"
       id="path1002-5-0" />
    <path
       inkscape:original-d="m 97.152872,70.161469 c 0.5842,-2.97332 0.2575,-5.22988 -1.12335,-6.12662 -0.46029,-0.29891 -1.01213,-0.42971 -1.63319,-0.40613 -3.353755,0.12732 -8.765185,4.74508 -13.186495,11.5533 -5.24006,8.069 -7.10224,16.15573 -4.15642,18.06877 1.39834,0.9081 3.62659,0.26437 6.1439,-1.52949"
       inkscape:path-effect="#path-effect1678-4-9"
       inkscape:label="path3773"
       inkscape:connector-curvature="0"
       d="m 97.152872,70.161469 c -0.26384,-0.124897 -0.326122,-0.854356 -0.431403,-2.056248 -0.09298,-1.061512 -0.208775,-2.847246 -1.301818,-3.131245 -10e-7,1e-6 -10e-7,0 -10e-7,0 -0.236455,-0.136402 -0.589014,-0.161488 -0.97731,-0.133443 0,0 -10e-7,0 -10e-7,0 -1.794941,0.08568 -3.351543,1.519942 -5.293998,3.146232 -2.82969,2.557279 -5.022383,5.534118 -6.650322,8.031808 -1.1e-5,1.6e-5 -0.02806,0.04357 -0.02807,0.04358 -1.857005,2.885136 -3.968908,6.636861 -5.009048,10.78465 -0.328938,1.365733 -0.558299,2.590042 -0.440162,3.730833 0.137962,0.800966 0.276335,1.470296 0.668159,1.694608 0.674746,0.873097 2.302221,0.278327 3.330359,-0.07247 1.157768,-0.395022 1.884753,-0.644759 2.178073,-0.478488 0.04862,0.238209 -0.376038,0.986087 -1.455116,1.778476 -0.985449,0.723636 -2.975948,1.754056 -5.299117,0.690833 -1.153461,-0.774155 -1.828013,-2.007849 -1.976186,-3.263514 -0.26034,-1.599701 -0.105963,-3.191985 0.225415,-4.717354 0.983658,-4.711727 3.235159,-8.807925 5.199505,-11.818602 -1.7e-5,2.5e-5 0.02985,-0.04569 0.02983,-0.04567 1.706506,-2.636749 4.115269,-5.820735 7.343908,-8.524034 1.943743,-1.747106 4.296749,-3.300564 7.085453,-3.386309 0.795459,-0.01638 1.59449,0.214919 2.278101,0.676422 1.928476,1.694722 1.768063,3.959278 1.511249,5.123268 -0.285805,1.295388 -0.771038,1.926536 -0.987495,1.926657 z"
       style="opacity:1;fill:#d5635c;fill-opacity:1;stroke:#cb3c33;stroke-width:0.69999999;stroke-linecap:round;stroke-miterlimit:4;stroke-dasharray:none;stroke-opacity:1"
       id="path1004-0-2" />
    <path
       inkscape:original-d="m 129.90026,65.311516 c -1.70166,-1.41188 -3.29761,-2.17006 -4.57983,-2.07389 -0.3414,0.0256 -0.65713,0.10974 -0.95054,0.25923 -3.12965,1.59464 -2.12984,9.8419 2.23807,18.414431 4.36792,8.57253 10.44569,14.22809 13.57534,12.63345 3.00975,-1.53354 2.19741,-9.21851 -1.75416,-17.429321"
       inkscape:path-effect="#path-effect1650-6-2-0"
       inkscape:connector-curvature="0"
       d="m 129.90026,65.311516 c -0.36574,0.239011 -2.31788,-1.68009 -4.5091,-1.130781 -0.20606,0.04094 -0.40564,0.112119 -0.56101,0.219458 -0.45956,0.221396 -0.69087,0.895623 -0.90975,1.720254 -0.2321,1.137219 -0.1318,2.378345 0.0686,3.807619 0.58641,3.936161 2.12676,7.703887 3.97083,11.294391 1.05021,2.012938 2.0594,3.703514 3.08755,5.184676 1.01067,1.45597 2.28225,3.053362 3.85161,4.517024 0.95703,0.875033 1.95005,1.708456 3.02252,2.138963 0.69182,0.212971 1.33743,0.41522 1.5977,0.178354 0,0 0,0 1e-5,-10e-7 0.33619,-0.04823 0.59306,-0.638673 0.84821,-1.278891 0.32713,-1.041411 0.3116,-2.276101 0.24304,-3.495044 -0.38738,-5.961788 -2.65838,-10.66383 -2.18138,-11.352145 0.51765,0.02448 3.83781,4.432046 4.75258,11.089387 0.19548,1.345424 0.26514,2.886507 -0.11155,4.482331 -0.21952,1.133821 -0.9157,2.341525 -2.23453,3.137896 0,0 0,10e-7 0,2e-6 -1.4667,0.647611 -2.93669,0.508049 -4.03811,-0.0071 -1.60657,-0.658389 -2.91065,-1.66847 -3.97101,-2.666688 -1.78237,-1.648709 -3.19685,-3.405798 -4.30177,-4.986791 -1.11898,-1.60112 -2.20552,-3.432716 -3.26558,-5.565929 -1.9045,-3.774664 -3.45525,-7.953964 -3.87757,-12.353812 -0.16377,-1.5811 -0.13537,-3.158128 0.28617,-4.678043 0.28772,-1.229957 1.07837,-2.347876 2.25033,-2.956568 0.44992,-0.201238 0.90539,-0.290803 1.33296,-0.297612 4.00603,0.09846 4.51439,3.273224 4.64921,2.999017 z"
       style="fill:#6682e0;fill-opacity:1;stroke:#4063d8;stroke-width:0.69999999;stroke-linecap:square;stroke-linejoin:round;stroke-miterlimit:1;stroke-dasharray:none;stroke-dashoffset:0;stroke-opacity:1"
       id="path1000-5-5-8" />
    <path
       inkscape:original-d="m 145.57542,83.734583 c 2.48711,-0.96482 4.01644,-2.28543 4.09593,-3.802133 0.18383,-3.50768 -7.44976,-6.755083 -17.05776,-7.258618 -0.90075,-0.04721 -1.78647,-0.07205 -2.65285,-0.06913 -8.37499,0.02819 -14.91232,2.32562 -15.07892,5.504452 -0.0793,1.513728 1.29978,2.981534 3.66388,4.199629"
       inkscape:path-effect="#path-effect1662-2-9"
       inkscape:connector-curvature="0"
       d="m 145.57542,83.734583 c -0.0356,-0.274826 0.47582,-0.681455 1.30294,-1.345507 0.73058,-0.586537 1.97688,-1.545208 1.70744,-2.513518 0.0377,-0.479685 -0.42732,-0.994938 -1.0152,-1.585264 -0.86402,-0.764876 -1.99074,-1.294552 -3.30283,-1.828992 -4.00522,-1.589072 -8.30541,-2.062478 -11.7308,-2.253383 0,0 -0.004,-2.1e-4 -0.004,-2.1e-4 0,0 0,0 0,0 -0.7934,-0.04146 -1.66276,-0.07059 -2.56729,-0.06935 0,0 0,0 0,0 -3.27904,0.01739 -6.84357,0.25623 -10.14648,1.356736 -1.13864,0.392142 -2.10865,0.783897 -2.85705,1.379734 -0.52484,0.465383 -0.93788,0.884512 -0.95635,1.293235 -0.36791,0.886562 0.6936,1.929443 1.34689,2.596708 0.73557,0.751309 1.20878,1.229751 1.1928,1.544022 -0.18011,0.148007 -0.9342,0.130819 -1.98221,-0.385988 -0.95904,-0.472935 -2.54941,-1.606966 -2.75943,-3.870121 0.064,-1.218395 0.64804,-2.322009 1.52283,-3.070706 1.04118,-0.953922 2.27361,-1.609556 3.55154,-2.094026 3.71093,-1.443287 7.63875,-1.802657 11.07713,-1.814128 0,0 1e-5,0 1e-5,0 0.97639,-0.0068 1.90123,0.02214 2.73839,0.06613 0,0 0,0 0,0 0,0 0.004,1.96e-4 0.004,1.96e-4 3.5853,0.17702 8.25324,0.767764 12.65791,2.763903 1.43501,0.636579 2.80456,1.451523 3.93079,2.597034 0.92903,0.867206 1.51122,2.133351 1.45139,3.487267 -0.45192,2.282518 -2.22767,3.244166 -3.22954,3.603374 -1.11229,0.398795 -1.8214,0.321311 -1.93308,0.142854 z"
       style="fill:#60ad51;fill-opacity:1;stroke:#389826;stroke-width:0.69999999;stroke-linecap:round;stroke-miterlimit:4;stroke-dasharray:none;stroke-opacity:1"
       id="path1002-5-2" />
    <path
       inkscape:original-d="m 142.888,70.539446 c 0.5842,-2.97332 0.2575,-5.22988 -1.12335,-6.12662 -0.46029,-0.29891 -1.01213,-0.42971 -1.63319,-0.40613 -3.35376,0.12732 -8.76519,4.74508 -13.1865,11.5533 -5.24005,8.069001 -7.10223,16.155731 -4.15641,18.068771 1.39834,0.9081 3.62658,0.26437 6.14389,-1.52949"
       inkscape:path-effect="#path-effect1678-4-9-7"
       inkscape:label="path3773"
       inkscape:connector-curvature="0"
       d="m 142.888,70.539446 c -0.26384,-0.124897 -0.32612,-0.854356 -0.4314,-2.056248 -0.093,-1.061512 -0.20878,-2.847246 -1.30182,-3.131245 0,0 0,0 0,0 -0.23646,-0.136402 -0.58902,-0.161488 -0.97731,-0.133443 0,0 0,0 0,0 -1.79495,0.08568 -3.35155,1.519942 -5.294,3.146233 -2.8297,2.557278 -5.02239,5.534117 -6.65033,8.031807 -1e-5,1.6e-5 -0.0281,0.04356 -0.0281,0.04358 -1.857,2.885138 -3.9689,6.636865 -5.00904,10.784654 -0.32894,1.365733 -0.5583,2.590042 -0.44016,3.730833 0.13796,0.800966 0.27633,1.470298 0.66816,1.694609 0.67474,0.873097 2.30222,0.278324 3.33035,-0.07247 1.15777,-0.395023 1.88476,-0.644759 2.17808,-0.478488 0.0486,0.238208 -0.37604,0.986086 -1.45512,1.778476 -0.98545,0.723636 -2.97594,1.754059 -5.29911,0.690837 -1.15346,-0.774155 -1.82802,-2.007849 -1.97619,-3.263514 -0.26034,-1.5997 -0.10596,-3.191985 0.22541,-4.717354 0.98366,-4.711727 3.23516,-8.807928 5.1995,-11.818607 -10e-6,2.6e-5 0.0299,-0.04569 0.0298,-0.04566 1.7065,-2.636749 4.11527,-5.820736 7.34391,-8.524036 1.94374,-1.747106 4.29675,-3.300563 7.08545,-3.386308 0.79546,-0.01638 1.5945,0.214919 2.27811,0.676422 1.92847,1.694722 1.76806,3.959278 1.51124,5.123268 -0.2858,1.295388 -0.77103,1.926536 -0.98749,1.926657 z"
       style="opacity:1;fill:#d5635c;fill-opacity:1;stroke:#cb3c33;stroke-width:0.69999999;stroke-linecap:round;stroke-miterlimit:4;stroke-dasharray:none;stroke-opacity:1"
       id="path1004-0-2-4" />
    <path
       inkscape:original-d="m 176.71959,65.602039 c -1.70166,-1.41188 -3.29761,-2.17006 -4.57983,-2.07389 -0.3414,0.0256 -0.65713,0.10974 -0.95054,0.25923 -3.12965,1.59464 -2.12984,9.841901 2.23807,18.414432 4.36792,8.57253 10.44569,14.228091 13.57534,12.63345 3.00975,-1.533541 2.19741,-9.21851 -1.75416,-17.429321"
       inkscape:path-effect="#path-effect1650-6-2-0-2"
       inkscape:connector-curvature="0"
       d="m 176.71959,65.602039 c -0.36574,0.239011 -2.31788,-1.68009 -4.5091,-1.130781 -0.20606,0.04094 -0.40564,0.112119 -0.56101,0.219458 -0.45956,0.221396 -0.69087,0.895623 -0.90975,1.720254 -0.2321,1.137219 -0.1318,2.378345 0.0686,3.807619 0.58641,3.936162 2.12676,7.703888 3.97083,11.294392 1.05021,2.012937 2.0594,3.703512 3.08755,5.184674 1.01067,1.45597 2.28225,3.053364 3.85161,4.517027 0.95703,0.875033 1.95005,1.708455 3.02252,2.138962 0.69182,0.212972 1.33743,0.415221 1.5977,0.178354 0,0 0,-10e-7 0,-10e-7 0.3362,-0.04823 0.59307,-0.638673 0.84822,-1.278892 0.32713,-1.04141 0.3116,-2.2761 0.24304,-3.495044 -0.38738,-5.961786 -2.65838,-10.663826 -2.18138,-11.352141 0.51765,0.02448 3.83781,4.432045 4.75258,11.089383 0.19548,1.345425 0.26514,2.886507 -0.11155,4.482332 -0.21952,1.13382 -0.9157,2.341525 -2.23453,3.137896 0,-10e-7 0,10e-7 0,10e-7 -1.4667,0.647612 -2.93669,0.508051 -4.03811,-0.0071 -1.60657,-0.658388 -2.91065,-1.66847 -3.97101,-2.666688 -1.78237,-1.64871 -3.19686,-3.4058 -4.30177,-4.986794 -1.11898,-1.601119 -2.20552,-3.432714 -3.26558,-5.565926 -1.90449,-3.774664 -3.45525,-7.953964 -3.87757,-12.353812 -0.16377,-1.5811 -0.13537,-3.158128 0.28617,-4.678044 0.28772,-1.229957 1.07837,-2.347876 2.25033,-2.956568 0.44992,-0.201238 0.90539,-0.290803 1.33296,-0.297612 4.00603,0.09846 4.51439,3.273224 4.64921,2.999017 z"
       style="fill:#6682e0;fill-opacity:1;stroke:#4063d8;stroke-width:0.69999999;stroke-linecap:square;stroke-linejoin:round;stroke-miterlimit:1;stroke-dasharray:none;stroke-dashoffset:0;stroke-opacity:1"
       id="path1000-5-5-8-7" />
    <path
       inkscape:original-d="m 192.39475,84.025107 c 2.48711,-0.96482 4.01644,-2.28543 4.09593,-3.802133 0.18383,-3.50768 -7.44976,-6.755083 -17.05776,-7.258619 -0.90075,-0.04721 -1.78647,-0.07205 -2.65285,-0.06913 -8.37499,0.02819 -14.91232,2.325619 -15.07892,5.504452 -0.0793,1.513728 1.29978,2.981534 3.66388,4.199629"
       inkscape:path-effect="#path-effect1662-2-9-6"
       inkscape:connector-curvature="0"
       d="m 192.39475,84.025107 c -0.0356,-0.274826 0.47582,-0.681455 1.30294,-1.345507 0.73058,-0.586537 1.97688,-1.545208 1.70744,-2.513518 0.0377,-0.479685 -0.42732,-0.994938 -1.0152,-1.585264 -0.86402,-0.764876 -1.99074,-1.294553 -3.30283,-1.828992 -4.00522,-1.589073 -8.30541,-2.062479 -11.73081,-2.253385 0,0 -0.004,-2.09e-4 -0.004,-2.09e-4 0,0 0,0 0,0 -0.7934,-0.04147 -1.66276,-0.07059 -2.56729,-0.06935 0,0 0,0 0,0 -3.27904,0.01739 -6.84357,0.256229 -10.14648,1.356736 -1.13864,0.392141 -2.10865,0.783897 -2.85705,1.379734 -0.52484,0.465382 -0.93788,0.884512 -0.95634,1.293235 -0.36792,0.886562 0.69359,1.929443 1.34688,2.596709 0.73557,0.751309 1.20878,1.229751 1.1928,1.544022 -0.18011,0.148007 -0.9342,0.13082 -1.98221,-0.385988 -0.95904,-0.472934 -2.54941,-1.606966 -2.75943,-3.870122 0.064,-1.218395 0.64804,-2.32201 1.52283,-3.070706 1.04118,-0.953923 2.27361,-1.609556 3.55154,-2.094027 3.71093,-1.443286 7.63875,-1.802656 11.07713,-1.814127 0,0 1e-5,0 1e-5,0 0.9764,-0.0068 1.90123,0.02214 2.73839,0.06613 0,0 0,0 0,0 0,0 0.004,1.96e-4 0.004,1.96e-4 3.58531,0.17702 8.25325,0.767764 12.65792,2.763904 1.43501,0.636579 2.80456,1.451524 3.93079,2.597034 0.92903,0.867206 1.51122,2.133351 1.45139,3.487267 -0.45192,2.282518 -2.22767,3.244166 -3.22954,3.603374 -1.11229,0.398795 -1.8214,0.321311 -1.93308,0.142854 z"
       style="fill:#60ad51;fill-opacity:1;stroke:#389826;stroke-width:0.69999999;stroke-linecap:round;stroke-miterlimit:4;stroke-dasharray:none;stroke-opacity:1"
       id="path1002-5-2-0" />
    <path
       inkscape:original-d="m 189.70733,70.829969 c 0.5842,-2.97332 0.2575,-5.22988 -1.12335,-6.12662 -0.46029,-0.29891 -1.01213,-0.42971 -1.63319,-0.40613 -3.35376,0.12732 -8.76519,4.74508 -13.1865,11.553301 -5.24005,8.069001 -7.10223,16.155731 -4.15641,18.068772 1.39834,0.908098 3.62658,0.264369 6.14389,-1.52949"
       inkscape:path-effect="#path-effect1678-4-9-7-8"
       inkscape:label="path3773"
       inkscape:connector-curvature="0"
       d="m 189.70733,70.829969 c -0.26384,-0.124897 -0.32612,-0.854356 -0.4314,-2.056248 -0.093,-1.061512 -0.20878,-2.847246 -1.30182,-3.131245 0,0 0,0 0,0 -0.23646,-0.136402 -0.58902,-0.161488 -0.97731,-0.133443 0,0 0,0 0,0 -1.79495,0.08568 -3.35155,1.519942 -5.294,3.146233 -2.8297,2.557278 -5.02239,5.534119 -6.65033,8.031807 -1e-5,1.7e-5 -0.0281,0.04356 -0.0281,0.04358 -1.857,2.885139 -3.9689,6.636867 -5.00904,10.784657 -0.32894,1.365734 -0.5583,2.590043 -0.44016,3.730834 0.13796,0.800966 0.27633,1.470297 0.66816,1.694609 0.67474,0.873096 2.30222,0.278324 3.33035,-0.07247 1.15777,-0.395022 1.88475,-0.644759 2.17807,-0.478488 0.0486,0.238209 -0.37603,0.986086 -1.45511,1.778475 -0.98545,0.723635 -2.97594,1.754057 -5.29911,0.690837 -1.15346,-0.774155 -1.82802,-2.007849 -1.97619,-3.263515 -0.26034,-1.5997 -0.10596,-3.191984 0.22541,-4.717354 0.98366,-4.711728 3.23516,-8.807929 5.1995,-11.818609 -1e-5,2.6e-5 0.0299,-0.04568 0.0298,-0.04566 1.7065,-2.636749 4.11527,-5.820736 7.34391,-8.524036 1.94374,-1.747107 4.29675,-3.300564 7.08545,-3.386309 0.79546,-0.01638 1.5945,0.214919 2.27811,0.676422 1.92847,1.694722 1.76806,3.959278 1.51124,5.123268 -0.2858,1.295388 -0.77103,1.926536 -0.98749,1.926657 z"
       style="opacity:1;fill:#aa79c1;fill-opacity:1;stroke:#9558b2;stroke-width:0.69999999;stroke-linecap:round;stroke-miterlimit:4;stroke-dasharray:none;stroke-opacity:1"
       id="path1004-0-2-4-7" />
    <path
       inkscape:original-d="m 91.491734,136.92056 c -0.422239,-0.35033 -0.818248,-0.53846 -1.136412,-0.5146 -0.08471,0.006 -0.163056,0.0272 -0.23586,0.0643 -0.776572,0.39569 -0.528485,2.44211 0.555342,4.56924 1.083827,2.12713 2.591925,3.53047 3.368496,3.13478 0.74682,-0.38052 0.545251,-2.28742 -0.435266,-4.3248"
       inkscape:path-effect="#path-effect1650-6-3"
       inkscape:connector-curvature="0"
       d="m 91.491734,136.92056 c -0.09075,0.0593 -0.575225,-0.41687 -1.119347,-0.28055 -0.05019,0.01 -0.09931,0.0276 -0.138711,0.0544 -0.354654,0.13756 -0.233471,0.67981 -0.208714,1.37166 0.145506,0.9767 0.527722,1.9116 0.985295,2.80252 0.260599,0.49949 0.511019,0.91898 0.766146,1.28652 0.250777,0.36127 0.566293,0.75762 0.955692,1.1208 0.447942,0.32074 0.921258,0.80648 1.146433,0.575 0.303436,-0.0268 0.247796,-0.66938 0.270777,-1.18458 -0.09613,-1.47936 -0.659674,-2.64613 -0.541315,-2.81693 0.128443,0.006 0.952325,1.09977 1.179316,2.75174 0.129468,0.53944 0.134545,1.39445 -0.58214,1.89083 -0.847871,0.31613 -1.603675,-0.21311 -1.987332,-0.66345 -0.442255,-0.40909 -0.793228,-0.84507 -1.067391,-1.23736 -0.277665,-0.3973 -0.547278,-0.85179 -0.810322,-1.38112 -0.472568,-0.93662 -0.857364,-1.97364 -0.962159,-3.06539 -0.145268,-0.72308 0.0029,-1.53532 0.629384,-1.89441 0.110893,-0.0498 0.22408,-0.0724 0.331237,-0.0739 0.993595,0.0245 1.1197,0.81223 1.153151,0.74419 z"
       style="fill:#aa79c1;fill-opacity:1;stroke:#9558b2;stroke-width:0.17369342;stroke-linecap:square;stroke-linejoin:round;stroke-miterlimit:1;stroke-dasharray:none;stroke-dashoffset:0;stroke-opacity:1"
       id="path1000-5-7" />
    <path
       inkscape:original-d="m 95.381268,141.49194 c 0.617135,-0.23941 0.996613,-0.56709 1.016337,-0.94344 0.04562,-0.87037 -1.848534,-1.67616 -4.232601,-1.8011 -0.223506,-0.0117 -0.443283,-0.0179 -0.658261,-0.0171 -2.078115,0.007 -3.700245,0.57707 -3.741584,1.36584 -0.01968,0.37561 0.322518,0.73982 0.909131,1.04207"
       inkscape:path-effect="#path-effect1662-2-77"
       inkscape:connector-curvature="0"
       d="m 95.381268,141.49194 c -0.01686,-0.13017 0.890065,-0.44334 0.746975,-0.95756 0.06081,-0.36303 -0.477298,-0.52539 -1.071446,-0.84718 0,0 0,0 0,0 -0.993797,-0.39429 -2.06078,-0.51176 -2.910704,-0.55914 0,0 -0.001,-5e-5 -0.001,-5e-5 0,0 0,0 0,0 -0.196843,-0.0103 -0.412757,-0.0175 -0.636977,-0.0172 0,0 0,0 0,0 -0.813669,0.004 -1.698169,0.0636 -2.517747,0.33665 -0.518001,0.24401 -0.967074,0.36247 -0.946227,0.66326 -0.195006,0.46989 0.637786,0.87879 0.630227,1.02748 0.139556,-0.11469 -1.059003,0.21132 -1.176613,-1.05611 0.06701,-0.66187 0.648269,-1.11399 1.259124,-1.28154 0.920779,-0.35813 1.895374,-0.4473 2.74854,-0.45015 0,0 10e-7,0 10e-7,0 0.242306,-0.002 0.471977,0.005 0.679542,0.0164 0,0 0,0 0,0 0,0 0.0011,6e-5 0.0011,6e-5 0.889613,0.0439 2.047851,0.19051 3.140775,0.6858 0,0 0,0 0,0 0.685329,0.22486 1.335696,0.76319 1.335495,1.50972 -0.275288,1.39039 -1.434658,0.68408 -1.281018,0.92957 z"
       style="fill:#60ad51;fill-opacity:1;stroke:#389826;stroke-width:0.17369342;stroke-linecap:round;stroke-miterlimit:4;stroke-dasharray:none;stroke-opacity:1"
       id="path1002-5-7" />
    <path
       inkscape:original-d="m 94.71443,138.21779 c 0.144959,-0.73779 0.06389,-1.29771 -0.278742,-1.52022 -0.114213,-0.0742 -0.251146,-0.10663 -0.405251,-0.10078 -0.83218,0.0316 -2.174937,1.17741 -3.272012,2.86676 -1.300234,2.00219 -1.762304,4.00878 -1.031347,4.48347 0.346975,0.22533 0.899878,0.0656 1.524507,-0.37952"
       inkscape:path-effect="#path-effect1678-4-0"
       inkscape:label="path3773"
       inkscape:connector-curvature="0"
       d="m 94.71443,138.21779 c -0.124623,-0.059 0.150755,-1.13628 -0.430089,-1.28721 0,0 0,0 0,0 -0.05862,-0.0339 -0.146094,-0.04 -0.242488,-0.0331 0,0 0,0 0,0 -1.292602,0.0595 -2.19781,1.69164 -2.963787,2.77366 -2e-6,0 -0.0068,0.0105 -0.0068,0.0105 -0.460852,0.71597 -0.984979,1.64701 -1.2431,2.67633 0,0 0,0 0,0 -0.08162,0.65654 -0.267387,1.19807 0.05657,1.34623 0.357807,0.46298 1.228614,-0.21515 1.36691,-0.13677 -0.05004,-0.24516 -0.354155,1.21775 -1.676031,0.61278 -0.615666,-0.4557 -0.654327,-1.30787 -0.434425,-1.98032 0,0 0,0 0,0 0.244107,-1.16927 0.802877,-2.18578 1.290367,-2.9329 -4e-6,1e-5 0.0072,-0.011 0.0072,-0.011 0.652905,-1.10014 1.803443,-2.90065 3.580409,-2.95534 0.197347,-0.004 0.395633,0.0533 0.565292,0.16786 1.203182,1.05734 -0.246576,1.74952 0.129945,1.7493 z"
       style="opacity:1;fill:#d5635c;fill-opacity:1;stroke:#cb3c33;stroke-width:0.17369342;stroke-linecap:round;stroke-miterlimit:4;stroke-dasharray:none;stroke-opacity:1"
       id="path1004-0-9" />
    <path
       inkscape:original-d="m 102.83546,137.01435 c -0.42224,-0.35034 -0.81825,-0.53846 -1.13641,-0.5146 -0.0847,0.006 -0.16306,0.0272 -0.23586,0.0643 -0.77657,0.39569 -0.52849,2.44211 0.55534,4.56924 1.08383,2.12713 2.59193,3.53046 3.3685,3.13478 0.74682,-0.38052 0.54525,-2.28742 -0.43527,-4.3248"
       inkscape:path-effect="#path-effect1650-6-2-8"
       inkscape:connector-curvature="0"
       d="m 102.83546,137.01435 c -0.0907,0.0593 -0.57522,-0.41687 -1.11934,-0.28055 -0.0502,0.01 -0.0993,0.0276 -0.13871,0.0544 -0.35466,0.13756 -0.23348,0.67981 -0.20872,1.37166 0.1455,0.9767 0.52772,1.9116 0.98529,2.80252 0.2606,0.49949 0.51102,0.91898 0.76615,1.28652 0.25078,0.36126 0.56629,0.75762 0.95569,1.12079 0.44795,0.32074 0.92126,0.80649 1.14644,0.57501 0.30344,-0.0268 0.24779,-0.66938 0.27077,-1.18458 -0.0961,-1.47936 -0.65967,-2.64613 -0.54131,-2.81693 0.12844,0.006 0.95232,1.09977 1.17932,2.75174 0.12946,0.53944 0.13454,1.39445 -0.58215,1.89083 -0.84787,0.31613 -1.60367,-0.21312 -1.98733,-0.66345 -0.44225,-0.40909 -0.79322,-0.84507 -1.06739,-1.23736 -0.27766,-0.3973 -0.54728,-0.85179 -0.81032,-1.38112 -0.47257,-0.93662 -0.85737,-1.97364 -0.96216,-3.06539 -0.14527,-0.72308 0.003,-1.53532 0.62938,-1.8944 0.1109,-0.0499 0.22409,-0.0724 0.33124,-0.0739 0.9936,0.0245 1.1197,0.81223 1.15315,0.74419 z"
       style="fill:#6682e0;fill-opacity:1;stroke:#4063d8;stroke-width:0.17369342;stroke-linecap:square;stroke-linejoin:round;stroke-miterlimit:1;stroke-dasharray:none;stroke-dashoffset:0;stroke-opacity:1"
       id="path1000-5-5-3" />
    <path
       inkscape:original-d="m 106.725,141.58573 c 0.61713,-0.23941 0.99661,-0.56709 1.01634,-0.94344 0.0456,-0.87037 -1.84854,-1.67616 -4.2326,-1.8011 -0.22351,-0.0117 -0.44329,-0.0179 -0.65827,-0.0172 -2.07812,0.007 -3.700247,0.57706 -3.741586,1.36584 -0.01968,0.3756 0.322519,0.73982 0.909136,1.04207"
       inkscape:path-effect="#path-effect1662-2-7-5"
       inkscape:connector-curvature="0"
       d="m 106.725,141.58573 c -0.0169,-0.13017 0.89005,-0.44334 0.74698,-0.95756 0.0608,-0.36304 -0.47731,-0.5254 -1.07146,-0.84718 0,0 0,0 0,0 -0.99379,-0.3943 -2.06078,-0.51177 -2.9107,-0.55914 0,0 -0.001,-5e-5 -0.001,-5e-5 0,0 -1e-5,0 -1e-5,0 -0.19687,-0.0103 -0.41269,-0.0175 -0.63707,-0.0173 0,0 0,0 0,0 -0.81364,0.004 -1.69811,0.0636 -2.51766,0.33665 -0.518002,0.244 -0.967073,0.36247 -0.946228,0.66326 -0.195005,0.46988 0.637778,0.87879 0.630228,1.02747 0.13955,-0.11468 -1.059004,0.21133 -1.176612,-1.0561 0.06701,-0.66186 0.648264,-1.114 1.259122,-1.28154 0.92081,-0.35813 1.89544,-0.4473 2.74863,-0.45015 0,0 0,0 0,0 0.24227,-0.002 0.47181,0.006 0.67946,0.0164 0,0 0,0 0,0 0,0 0.001,6e-5 0.001,6e-5 0.88962,0.0439 2.04785,0.19051 3.14078,0.6858 0,0 0,0 0,0 0.68532,0.22487 1.33569,0.76319 1.3355,1.50972 -0.2753,1.39037 -1.43465,0.68409 -1.28102,0.92957 z"
       style="fill:#aa79c1;fill-opacity:1;stroke:#9558b2;stroke-width:0.17369342;stroke-linecap:round;stroke-miterlimit:4;stroke-dasharray:none;stroke-opacity:1"
       id="path1002-5-0-2" />
    <path
       inkscape:original-d="m 106.05816,138.31157 c 0.14496,-0.73778 0.0639,-1.2977 -0.27874,-1.52022 -0.11422,-0.0742 -0.25115,-0.10662 -0.40525,-0.10077 -0.83218,0.0316 -2.17494,1.17741 -3.27202,2.86676 -1.30023,2.00219 -1.7623,4.00878 -1.03135,4.48347 0.34698,0.22533 0.89988,0.0656 1.52452,-0.37952"
       inkscape:path-effect="#path-effect1678-4-9-75"
       inkscape:label="path3773"
       inkscape:connector-curvature="0"
       d="m 106.05816,138.31157 c -0.12462,-0.059 0.15076,-1.13627 -0.43008,-1.28721 0,0 0,0 0,0 -0.0586,-0.0339 -0.1461,-0.04 -0.24249,-0.0331 0,0 0,0 0,0 -1.29261,0.0595 -2.19782,1.69164 -2.9638,2.77366 0,0 -0.007,0.0105 -0.007,0.0105 -0.46085,0.71597 -0.98498,1.64701 -1.2431,2.67633 0,0 0,0 0,0 -0.0816,0.65654 -0.26739,1.19807 0.0566,1.34623 0.35782,0.46298 1.22862,-0.21515 1.36692,-0.13676 -0.05,-0.24515 -0.35417,1.21773 -1.67604,0.61277 -0.61566,-0.4557 -0.65432,-1.30787 -0.43442,-1.98032 0,0 0,0 0,0 0.24411,-1.16927 0.80288,-2.18578 1.29037,-2.9329 -1e-5,1e-5 0.007,-0.011 0.007,-0.011 0.65291,-1.10014 1.80345,-2.90065 3.58042,-2.95534 0.19734,-0.004 0.39562,0.0533 0.56528,0.16785 1.20317,1.05735 -0.24656,1.74952 0.12995,1.7493 z"
       style="opacity:1;fill:#d5635c;fill-opacity:1;stroke:#cb3c33;stroke-width:0.17369342;stroke-linecap:round;stroke-miterlimit:4;stroke-dasharray:none;stroke-opacity:1"
       id="path1004-0-2-0" />
    <path
       inkscape:original-d="m 114.18388,137.10814 c -0.42224,-0.35034 -0.81825,-0.53847 -1.13641,-0.5146 -0.0847,0.006 -0.16306,0.0272 -0.23586,0.0643 -0.77657,0.39568 -0.52849,2.44211 0.55534,4.56924 1.08382,2.12713 2.59192,3.53046 3.36849,3.13478 0.74682,-0.38052 0.54525,-2.28742 -0.43526,-4.3248"
       inkscape:path-effect="#path-effect1650-6-2-0-4"
       inkscape:connector-curvature="0"
       d="m 114.18388,137.10814 c -0.0907,0.0593 -0.57523,-0.4169 -1.11934,-0.28055 -0.0502,0.01 -0.0993,0.0276 -0.13871,0.0544 -0.35466,0.13755 -0.23347,0.67981 -0.20872,1.37166 0.1455,0.9767 0.52772,1.9116 0.98529,2.80252 0.2606,0.49949 0.51102,0.91898 0.76615,1.28652 0.25077,0.36126 0.56629,0.75762 0.95569,1.12079 0.44794,0.32074 0.92125,0.80649 1.14643,0.57501 0.30344,-0.0268 0.24779,-0.66938 0.27078,-1.18458 -0.0961,-1.47937 -0.65968,-2.64614 -0.54132,-2.81694 0.12845,0.006 0.95233,1.09978 1.17932,2.75175 0.12946,0.53944 0.13454,1.39445 -0.58215,1.89083 -0.84787,0.31613 -1.60367,-0.21312 -1.98733,-0.66345 -0.44225,-0.40909 -0.79322,-0.84507 -1.06738,-1.23736 -0.27767,-0.3973 -0.54728,-0.85179 -0.81032,-1.38112 -0.47257,-0.93662 -0.85737,-1.97364 -0.96216,-3.0654 -0.14527,-0.72307 0.003,-1.53532 0.62938,-1.8944 0.1109,-0.0499 0.22409,-0.0724 0.33124,-0.0739 0.99361,0.0245 1.11969,0.81224 1.15315,0.74419 z"
       style="fill:#6682e0;fill-opacity:1;stroke:#4063d8;stroke-width:0.17369342;stroke-linecap:square;stroke-linejoin:round;stroke-miterlimit:1;stroke-dasharray:none;stroke-dashoffset:0;stroke-opacity:1"
       id="path1000-5-5-8-78" />
    <path
       inkscape:original-d="m 118.07341,141.67952 c 0.61713,-0.23941 0.99661,-0.56709 1.01634,-0.94344 0.0456,-0.87037 -1.84854,-1.67616 -4.2326,-1.80111 -0.22351,-0.0117 -0.44329,-0.0179 -0.65827,-0.0171 -2.07811,0.007 -3.70024,0.57706 -3.74158,1.36584 -0.0197,0.3756 0.32252,0.73982 0.90913,1.04207"
       inkscape:path-effect="#path-effect1662-2-9-2"
       inkscape:connector-curvature="0"
       d="m 118.07341,141.67952 c -0.0169,-0.13017 0.89005,-0.44334 0.74698,-0.95756 0.0608,-0.36304 -0.47731,-0.5254 -1.07146,-0.84718 0,0 0,0 0,0 -0.99379,-0.3943 -2.06077,-0.51177 -2.9107,-0.55915 0,0 -0.001,-5e-5 -0.001,-5e-5 0,0 0,0 0,0 -0.19684,-0.0103 -0.41276,-0.0175 -0.63698,-0.0172 0,0 0,0 0,0 -0.81367,0.004 -1.69817,0.0636 -2.51774,0.33665 -0.51801,0.244 -0.96708,0.36248 -0.94623,0.66327 -0.19505,0.46985 0.63778,0.87878 0.63022,1.02747 0.13959,-0.11472 -1.05904,0.21135 -1.17661,-1.05612 0.067,-0.66186 0.64827,-1.11399 1.25913,-1.28153 0.92078,-0.35813 1.89537,-0.4473 2.74853,-0.45015 0,0 0,0 0,0 0.24231,-0.002 0.47199,0.005 0.67956,0.0163 0,0 0,0 0,0 0,0 0.001,6e-5 0.001,6e-5 0.88961,0.0439 2.04785,0.19052 3.14077,0.68581 0,0 0,0 0,0 0.68532,0.22487 1.33569,0.76319 1.3355,1.50972 -0.2753,1.39037 -1.43465,0.68409 -1.28102,0.92957 z"
       style="fill:#60ad51;fill-opacity:1;stroke:#389826;stroke-width:0.17369342;stroke-linecap:round;stroke-miterlimit:4;stroke-dasharray:none;stroke-opacity:1"
       id="path1002-5-2-2" />
    <path
       inkscape:original-d="m 117.40657,138.40536 c 0.14496,-0.73778 0.0639,-1.2977 -0.27874,-1.52022 -0.11421,-0.0742 -0.25114,-0.10662 -0.40525,-0.10077 -0.83218,0.0316 -2.17494,1.17741 -3.27201,2.86676 -1.30023,2.00219 -1.7623,4.00878 -1.03135,4.48347 0.34698,0.22533 0.89988,0.0656 1.52451,-0.37952"
       inkscape:path-effect="#path-effect1678-4-9-7-1"
       inkscape:label="path3773"
       inkscape:connector-curvature="0"
       d="m 117.40657,138.40536 c -0.12462,-0.059 0.15076,-1.13627 -0.43009,-1.28721 0,0 0,0 0,0 -0.0586,-0.0339 -0.14607,-0.04 -0.24248,-0.0331 0,0 0,0 0,0 -1.29261,0.0595 -2.19781,1.69164 -2.96379,2.77366 0,0 -0.007,0.0105 -0.007,0.0105 -0.46085,0.71596 -0.98498,1.647 -1.2431,2.67632 0,0 0,0 0,0 -0.0816,0.65654 -0.26739,1.19807 0.0566,1.34623 0.35782,0.46298 1.22862,-0.21516 1.36692,-0.13677 -0.05,-0.24516 -0.35416,1.21775 -1.67604,0.61278 -0.61566,-0.4557 -0.65432,-1.30788 -0.43442,-1.98032 0,0 0,0 0,0 0.24411,-1.16927 0.80287,-2.18578 1.29036,-2.93289 0,0 0.007,-0.011 0.007,-0.011 0.6529,-1.10014 1.80344,-2.90065 3.58041,-2.95534 0.19733,-0.004 0.39562,0.0533 0.56529,0.16785 1.20317,1.05735 -0.24657,1.74952 0.12994,1.7493 z"
       style="opacity:1;fill:#d5635c;fill-opacity:1;stroke:#cb3c33;stroke-width:0.17369342;stroke-linecap:round;stroke-miterlimit:4;stroke-dasharray:none;stroke-opacity:1"
       id="path1004-0-2-4-0" />
    <path
       inkscape:original-d="m 125.80132,137.18023 c -0.42224,-0.35034 -0.81825,-0.53847 -1.13641,-0.5146 -0.0847,0.006 -0.16305,0.0272 -0.23586,0.0643 -0.77657,0.39568 -0.52848,2.4421 0.55534,4.56924 1.08383,2.12713 2.59193,3.53046 3.3685,3.13478 0.74682,-0.38053 0.54525,-2.28742 -0.43527,-4.3248"
       inkscape:path-effect="#path-effect1650-6-2-0-2-3"
       inkscape:connector-curvature="0"
       d="m 125.80132,137.18023 c -0.0907,0.0593 -0.57523,-0.4169 -1.11934,-0.28055 -0.0502,0.01 -0.0993,0.0276 -0.13872,0.0544 -0.35465,0.13754 -0.23346,0.6798 -0.20871,1.37165 0.14551,0.97669 0.52772,1.91159 0.98529,2.80252 0.2606,0.49949 0.51102,0.91898 0.76615,1.28652 0.25078,0.36126 0.56629,0.75762 0.95569,1.12079 0.44795,0.32074 0.92126,0.80649 1.14644,0.57501 0.30344,-0.0268 0.2478,-0.66939 0.27077,-1.18458 -0.0961,-1.47937 -0.65967,-2.64614 -0.54132,-2.81693 0.12845,0.006 0.95233,1.09977 1.17933,2.75173 0.12946,0.53945 0.13454,1.39446 -0.58214,1.89084 -0.84788,0.31613 -1.60368,-0.21312 -1.98734,-0.66345 -0.44225,-0.40909 -0.79322,-0.84507 -1.06739,-1.23736 -0.27766,-0.3973 -0.54728,-0.85179 -0.81032,-1.38112 -0.47257,-0.93662 -0.85736,-1.97365 -0.96216,-3.0654 -0.14527,-0.72307 0.003,-1.53532 0.62939,-1.8944 0.11088,-0.0498 0.22407,-0.0724 0.33123,-0.0739 0.99361,0.0245 1.11969,0.81224 1.15315,0.74419 z"
       style="fill:#6682e0;fill-opacity:1;stroke:#4063d8;stroke-width:0.17369342;stroke-linecap:square;stroke-linejoin:round;stroke-miterlimit:1;stroke-dasharray:none;stroke-dashoffset:0;stroke-opacity:1"
       id="path1000-5-5-8-7-7" />
    <path
       inkscape:original-d="m 129.69085,141.75161 c 0.61714,-0.23941 0.99661,-0.56709 1.01634,-0.94344 0.0456,-0.87037 -1.84854,-1.67616 -4.2326,-1.80111 -0.22351,-0.0117 -0.44328,-0.0179 -0.65826,-0.0171 -2.07812,0.007 -3.70025,0.57706 -3.74159,1.36584 -0.0197,0.3756 0.32252,0.73981 0.90913,1.04207"
       inkscape:path-effect="#path-effect1662-2-9-6-4"
       inkscape:connector-curvature="0"
       d="m 129.69085,141.75161 c -0.0169,-0.13017 0.89005,-0.44334 0.74698,-0.95756 0.0608,-0.36304 -0.47731,-0.5254 -1.07146,-0.84718 0,0 0,0 0,0 -0.99379,-0.3943 -2.06077,-0.51177 -2.9107,-0.55915 0,0 -0.001,-5e-5 -0.001,-5e-5 0,0 0,0 0,0 -0.19684,-0.0103 -0.41275,-0.0176 -0.63697,-0.0172 0,0 0,0 0,0 -0.81367,0.004 -1.69817,0.0636 -2.51775,0.33665 -0.518,0.244 -0.96708,0.36247 -0.94623,0.66327 -0.19505,0.46985 0.63778,0.87878 0.63022,1.02747 0.13959,-0.11471 -1.05904,0.21135 -1.17661,-1.05612 0.067,-0.66186 0.64827,-1.11399 1.25913,-1.28153 0.92078,-0.35813 1.89538,-0.4473 2.74854,-0.45015 0,0 0,0 0,0 0.24231,-0.002 0.47198,0.005 0.67955,0.0164 0,0 0,0 0,0 0,0 0.001,6e-5 0.001,6e-5 0.88961,0.0439 2.04785,0.19052 3.14077,0.68581 0,0 0,0 0,0 0.68532,0.22487 1.33569,0.76319 1.3355,1.50972 -0.2753,1.39037 -1.43465,0.68409 -1.28102,0.92957 z"
       style="fill:#60ad51;fill-opacity:1;stroke:#389826;stroke-width:0.17369342;stroke-linecap:round;stroke-miterlimit:4;stroke-dasharray:none;stroke-opacity:1"
       id="path1002-5-2-0-1" />
    <path
       inkscape:original-d="m 129.02401,138.47745 c 0.14496,-0.73778 0.0639,-1.29771 -0.27874,-1.52022 -0.11421,-0.0742 -0.25114,-0.10662 -0.40525,-0.10077 -0.83218,0.0316 -2.17493,1.17741 -3.27201,2.86676 -1.30023,2.00219 -1.7623,4.00877 -1.03134,4.48346 0.34697,0.22533 0.89987,0.0656 1.5245,-0.37951"
       inkscape:path-effect="#path-effect1678-4-9-7-8-7"
       inkscape:label="path3773"
       inkscape:connector-curvature="0"
       d="m 129.02401,138.47745 c -0.12462,-0.059 0.15076,-1.13629 -0.43009,-1.28721 0,0 0,0 0,0 -0.0586,-0.0339 -0.14607,-0.04 -0.24248,-0.0331 0,0 0,0 0,0 -1.29261,0.0595 -2.19782,1.69166 -2.96379,2.77366 0,0 -0.007,0.0105 -0.007,0.0105 -0.46086,0.71598 -0.985,1.64703 -1.24313,2.67636 0,0 0,0 0,0 -0.0816,0.65655 -0.26738,1.19807 0.0566,1.34624 0.35778,0.46296 1.22853,-0.2151 1.36682,-0.13671 -0.05,-0.2451 -0.35417,1.21763 -1.67594,0.6127 -0.61566,-0.45569 -0.65433,-1.30785 -0.43443,-1.98031 0,0 0,0 0,0 0.24411,-1.16928 0.8029,-2.18581 1.2904,-2.93294 -1e-5,1e-5 0.007,-0.011 0.007,-0.011 0.65289,-1.10012 1.80343,-2.90065 3.58041,-2.95534 0.19733,-0.004 0.39562,0.0533 0.56529,0.16785 1.2032,1.05735 -0.2466,1.74952 0.12994,1.7493 z"
       style="opacity:1;fill:#aa79c1;fill-opacity:1;stroke:#9558b2;stroke-width:0.17369342;stroke-linecap:round;stroke-miterlimit:4;stroke-dasharray:none;stroke-opacity:1"
       id="path1004-0-2-4-7-4" />
    <path
       inkscape:original-d="m 70.318434,107.45103 c -0.908779,-0.75402 -1.761103,-1.15893 -2.445884,-1.10757 -0.182326,0.0137 -0.350943,0.0586 -0.50764,0.13845 -1.671404,0.85162 -1.137451,5.2561 1.195256,9.8343 2.332708,4.5782 5.578569,7.59858 7.249972,6.74695 1.607371,-0.81899 1.173537,-4.92319 -0.936817,-9.30821"
       inkscape:path-effect="#path-effect1650-6-7"
       inkscape:connector-curvature="0"
       d="m 70.318434,107.45103 c -0.195327,0.12765 -1.237869,-0.89726 -2.408073,-0.6039 -0.110141,0.0219 -0.216763,0.0599 -0.299631,0.1172 -0.245433,0.11824 -0.368969,0.47832 -0.485872,0.91872 -0.123955,0.60733 -0.07039,1.27016 0.03666,2.03347 0.313175,2.10212 1.13581,4.11429 2.120643,6.03182 0.56087,1.07502 1.099833,1.97788 1.648924,2.7689 0.539752,0.77757 1.218846,1.63066 2.056967,2.41234 0.511109,0.46731 1.041433,0.9124 1.614189,1.14232 0.36947,0.11374 0.714263,0.22175 0.853263,0.0952 0,0 10e-7,0 10e-7,0 0.179544,-0.0258 0.316726,-0.34109 0.452995,-0.683 0.174703,-0.55617 0.166408,-1.21556 0.129796,-1.86655 -0.206882,-3.18392 -1.419723,-5.69506 -1.164977,-6.06266 0.276455,0.0131 2.049599,2.36695 2.538136,5.92234 0.104396,0.71853 0.1416,1.54155 -0.05957,2.39381 -0.117233,0.60552 -0.489032,1.2505 -1.193357,1.6758 -10e-7,0 -2e-6,0 -2e-6,0 -0.783299,0.34587 -1.56835,0.27133 -2.156572,-0.004 -0.857997,-0.35161 -1.554444,-0.89105 -2.120734,-1.42415 -0.951884,-0.8805 -1.707294,-1.81888 -2.297379,-2.66322 -0.597598,-0.85509 -1.177868,-1.83326 -1.744,-2.97251 -1.017105,-2.01588 -1.845293,-4.24785 -2.070837,-6.59761 -0.08746,-0.84439 -0.07229,-1.68661 0.15283,-2.49833 0.153648,-0.65686 0.575895,-1.25388 1.201779,-1.57895 0.240372,-0.10751 0.48361,-0.15531 0.711855,-0.15896 2.139471,0.0526 2.410974,1.74808 2.482974,1.60164 z"
       style="fill:#aa79c1;fill-opacity:1;stroke:#9558b2;stroke-width:0.37383816;stroke-linecap:square;stroke-linejoin:round;stroke-miterlimit:1;stroke-dasharray:none;stroke-dashoffset:0;stroke-opacity:1"
       id="path1000-5-6" />
    <path
       inkscape:original-d="m 79.748164,117.28995 c 1.328252,-0.51527 2.144998,-1.22055 2.18745,-2.03055 0.09818,-1.87329 -3.978578,-3.60758 -9.109774,-3.87649 -0.48105,-0.0252 -0.954073,-0.0385 -1.416767,-0.0369 -4.472701,0.0151 -7.963992,1.24201 -8.052965,2.93968 -0.04235,0.80841 0.694153,1.5923 1.956711,2.24283"
       inkscape:path-effect="#path-effect1662-2-90"
       inkscape:connector-curvature="0"
       d="m 79.748164,117.28995 c -0.019,-0.14677 0.254111,-0.36394 0.695842,-0.71858 0.390168,-0.31324 1.055761,-0.82522 0.911861,-1.34235 0.02014,-0.25618 -0.228209,-0.53135 -0.542168,-0.84662 -0.461431,-0.40848 -1.063163,-0.69136 -1.763891,-0.97678 -2.138971,-0.84864 -4.435466,-1.10146 -6.264781,-1.20342 0,0 -0.0021,-1.2e-4 -0.0021,-1.2e-4 0,0 0,0 0,0 -0.423702,-0.0221 -0.888141,-0.0377 -1.371046,-0.037 0,0 0,0 0,0 -1.751212,0.009 -3.654875,0.13687 -5.418814,0.72459 -1.11489,0.52516 -2.081421,0.78012 -2.036554,1.4275 -0.196487,0.47347 0.370431,1.03043 0.719329,1.38679 0.392842,0.40125 0.645563,0.65676 0.637028,0.8246 -0.09618,0.079 -0.498916,0.0699 -1.058617,-0.20613 -0.512186,-0.25258 -1.361547,-0.85822 -1.473712,-2.06688 0.14423,-1.42451 1.395254,-2.39762 2.709995,-2.75823 1.981819,-0.77078 4.07947,-0.96272 5.915752,-0.96886 0,0 10e-7,0 10e-7,0 0.521466,-0.004 1.015517,0.0118 1.462481,0.0353 0,0 10e-7,0 10e-7,0 0,0 0.0022,1.1e-4 0.0022,1.1e-4 1.914726,0.0945 4.407621,0.41003 6.759929,1.47606 0.766371,0.33997 1.497787,0.77519 2.099254,1.38696 0.496154,0.46313 0.807074,1.13932 0.775123,1.86239 -0.241354,1.21899 -1.189698,1.73256 -1.724753,1.9244 -0.594021,0.21298 -0.972724,0.1716 -1.03237,0.0763 z"
       style="fill:#60ad51;fill-opacity:1;stroke:#389826;stroke-width:0.37383816;stroke-linecap:round;stroke-miterlimit:4;stroke-dasharray:none;stroke-opacity:1"
       id="path1002-5-9" />
    <path
       inkscape:original-d="m 78.312935,110.24303 c 0.311995,-1.58792 0.137519,-2.79304 -0.59993,-3.27195 -0.24582,-0.15963 -0.540538,-0.22949 -0.872218,-0.2169 -1.791091,0.068 -4.681089,2.53414 -7.04231,6.17009 -2.798478,4.30929 -3.792984,8.62805 -2.219755,9.64972 0.74679,0.48497 1.936797,0.14118 3.281178,-0.81684"
       inkscape:path-effect="#path-effect1678-4-07"
       inkscape:label="path3773"
       inkscape:connector-curvature="0"
       d="m 78.312935,110.24303 c -0.140905,-0.0667 -0.174166,-0.45627 -0.230392,-1.09815 -0.04966,-0.5669 -0.111496,-1.52058 -0.695239,-1.67225 -10e-7,0 -10e-7,0 -10e-7,0 -0.126289,-0.0728 -0.314578,-0.0862 -0.521947,-0.0713 -1e-6,0 -1e-6,0 -1e-6,0 -0.958597,0.0458 -1.789907,0.81174 -2.827284,1.68027 -1.511204,1.36572 -2.682222,2.95551 -3.551635,4.28942 -6e-6,0 -0.01501,0.0233 -0.01502,0.0233 -0.991731,1.54081 -2.119589,3.54443 -2.675075,5.75956 -0.17567,0.72937 -0.298162,1.38322 -0.235069,1.99247 0.07368,0.42776 0.147577,0.78522 0.356832,0.90501 0.36036,0.46629 1.229553,0.14862 1.778648,-0.0387 0.618329,-0.21098 1.006584,-0.34436 1.163234,-0.25556 0.02596,0.12721 -0.200825,0.52663 -0.777121,0.94983 -0.526291,0.38648 -1.589355,0.93682 -2.83009,0.36899 -0.616014,-0.41345 -0.976261,-1.07231 -1.055393,-1.74291 -0.139035,-0.85433 -0.05659,-1.70469 0.120386,-2.51932 0.525324,-2.51631 1.727734,-4.70389 2.776792,-6.31174 -9e-6,10e-6 0.01597,-0.0245 0.01596,-0.0244 0.911373,-1.40817 2.197785,-3.10858 3.922048,-4.55229 1.038068,-0.93305 2.294702,-1.76268 3.784022,-1.80848 0.424824,-0.009 0.851549,0.11479 1.216631,0.36125 1.02991,0.90508 0.944242,2.11448 0.80709,2.73611 -0.152634,0.69181 -0.411774,1.02888 -0.527374,1.02894 z"
       style="opacity:1;fill:#d5635c;fill-opacity:1;stroke:#cb3c33;stroke-width:0.37383816;stroke-linecap:round;stroke-miterlimit:4;stroke-dasharray:none;stroke-opacity:1"
       id="path1004-0-3" />
    <path
       inkscape:original-d="m 94.733394,107.65289 c -0.908779,-0.75402 -1.761103,-1.15893 -2.445884,-1.10757 -0.182326,0.0137 -0.350943,0.0586 -0.50764,0.13844 -1.671404,0.85163 -1.137451,5.25611 1.195256,9.83431 2.332708,4.5782 5.578569,7.59858 7.249964,6.74695 1.60737,-0.81899 1.17354,-4.92319 -0.936814,-9.30821"
       inkscape:path-effect="#path-effect1650-6-2-1"
       inkscape:connector-curvature="0"
       d="m 94.733394,107.65289 c -0.195327,0.12765 -1.237869,-0.89726 -2.408073,-0.6039 -0.110139,0.0219 -0.216761,0.0599 -0.299642,0.1172 -0.245431,0.11824 -0.368964,0.47831 -0.485861,0.91871 -0.123955,0.60734 -0.07039,1.27017 0.03666,2.03348 0.313175,2.10212 1.13581,4.11429 2.120643,6.03182 0.56087,1.07502 1.099831,1.97787 1.648921,2.7689 0.539752,0.77756 1.218848,1.63066 2.056969,2.41234 0.511109,0.46731 1.041432,0.9124 1.614187,1.14232 0.36947,0.11374 0.71426,0.22175 0.853258,0.0953 0,0 0,0 0,0 0.179547,-0.0258 0.316727,-0.34109 0.452997,-0.683 0.1747,-0.55617 0.16641,-1.21556 0.1298,-1.86655 -0.20688,-3.18392 -1.419726,-5.69506 -1.16498,-6.06266 0.276455,0.0131 2.0496,2.36695 2.53814,5.92234 0.10439,0.71853 0.14159,1.54155 -0.0596,2.39381 -0.11723,0.60552 -0.48903,1.2505 -1.19336,1.6758 0,0 0,0 0,0 -0.783298,0.34587 -1.568348,0.27133 -2.156568,-0.004 -0.857996,-0.35161 -1.554442,-0.89105 -2.120731,-1.42415 -0.951885,-0.88051 -1.707296,-1.81889 -2.297381,-2.66322 -0.597597,-0.85509 -1.177866,-1.83326 -1.743997,-2.97251 -1.017105,-2.01588 -1.845294,-4.24785 -2.070837,-6.59761 -0.08746,-0.84439 -0.07229,-1.68661 0.15283,-2.49833 0.153654,-0.65686 0.575904,-1.25389 1.20179,-1.57897 0.240365,-0.10749 0.483598,-0.15529 0.711844,-0.15894 2.139471,0.0526 2.410974,1.74808 2.482974,1.60164 z"
       style="fill:#6682e0;fill-opacity:1;stroke:#4063d8;stroke-width:0.37383816;stroke-linecap:square;stroke-linejoin:round;stroke-miterlimit:1;stroke-dasharray:none;stroke-dashoffset:0;stroke-opacity:1"
       id="path1000-5-5-36" />
    <path
       inkscape:original-d="m 104.16311,117.49181 c 1.32826,-0.51527 2.14501,-1.22055 2.18746,-2.03055 0.0982,-1.87329 -3.97858,-3.60758 -9.10977,-3.87649 -0.48105,-0.0252 -0.954073,-0.0385 -1.416767,-0.0369 -4.472701,0.0151 -7.963992,1.24201 -8.052965,2.93968 -0.04235,0.80841 0.694153,1.5923 1.956711,2.24283"
       inkscape:path-effect="#path-effect1662-2-7-0"
       inkscape:connector-curvature="0"
       d="m 104.16311,117.49181 c -0.019,-0.14677 0.25411,-0.36394 0.69585,-0.71858 0.39017,-0.31324 1.05577,-0.82523 0.91186,-1.34236 0.0201,-0.25617 -0.2282,-0.53134 -0.54216,-0.84661 -0.46143,-0.40848 -1.06316,-0.69136 -1.76389,-0.97678 -2.13897,-0.84863 -4.43546,-1.10146 -6.264773,-1.20342 0,0 -0.0021,-1.2e-4 -0.0021,-1.2e-4 0,0 0,0 0,0 -0.423702,-0.0221 -0.888141,-0.0377 -1.371046,-0.037 0,0 0,0 0,0 -1.751214,0.009 -3.654875,0.13687 -5.418814,0.72459 -1.114891,0.52516 -2.081421,0.78012 -2.036555,1.4275 -0.196486,0.47347 0.370428,1.03043 0.719324,1.38679 0.39284,0.40124 0.64556,0.65676 0.637025,0.8246 -0.09619,0.079 -0.498916,0.0699 -1.058615,-0.20614 -0.512183,-0.25257 -1.36154,-0.85821 -1.473704,-2.06687 0.144229,-1.42451 1.395252,-2.39762 2.709994,-2.75823 1.981819,-0.77078 4.079469,-0.96272 5.915752,-0.96886 0,0 10e-7,0 10e-7,0 0.521466,-0.004 1.015517,0.0118 1.462481,0.0353 0,0 10e-7,0 10e-7,0 0,0 0.0022,1.1e-4 0.0022,1.1e-4 1.914725,0.0945 4.407619,0.41003 6.759919,1.47606 0.76637,0.33997 1.49779,0.77519 2.09926,1.38696 0.49615,0.46313 0.80707,1.13932 0.77511,1.86239 -0.24135,1.21899 -1.1897,1.73256 -1.72476,1.9244 -0.59402,0.21298 -0.97272,0.1716 -1.03237,0.0763 z"
       style="fill:#aa79c1;fill-opacity:1;stroke:#9558b2;stroke-width:0.37383816;stroke-linecap:round;stroke-miterlimit:4;stroke-dasharray:none;stroke-opacity:1"
       id="path1002-5-0-4" />
    <path
       inkscape:original-d="m 102.72788,110.44489 c 0.312,-1.58791 0.13752,-2.79304 -0.59993,-3.27195 -0.24581,-0.15963 -0.54053,-0.22949 -0.87221,-0.21689 -1.791084,0.068 -4.681082,2.53413 -7.042303,6.17008 -2.798478,4.30929 -3.792984,8.62804 -2.219755,9.64971 0.74679,0.48498 1.936797,0.14119 3.281178,-0.81683"
       inkscape:path-effect="#path-effect1678-4-9-71"
       inkscape:label="path3773"
       inkscape:connector-curvature="0"
       d="m 102.72788,110.44489 c -0.1409,-0.0667 -0.17417,-0.45627 -0.23039,-1.09815 -0.0497,-0.5669 -0.1115,-1.52058 -0.69525,-1.67226 0,0 0,0 0,0 -0.12627,-0.0728 -0.31456,-0.0862 -0.52192,-0.0713 0,0 0,0 0,0 -0.9586,0.0458 -1.789911,0.81174 -2.82729,1.68026 -1.511207,1.36573 -2.682225,2.95552 -3.551634,4.28942 -6e-6,0 -0.01499,0.0233 -0.015,0.0233 -0.991739,1.54082 -2.119608,3.54444 -2.675098,5.75958 -0.175671,0.72938 -0.298163,1.38323 -0.235071,1.99247 0.07368,0.42776 0.147579,0.78522 0.356835,0.90502 0.360347,0.46628 1.22951,0.14864 1.778592,-0.0387 0.618313,-0.21096 1.006563,-0.34433 1.163212,-0.25554 0.02597,0.12722 -0.200825,0.52663 -0.777112,0.94981 -0.526283,0.38646 -1.589321,0.93677 -2.830021,0.36894 -0.61601,-0.41344 -0.976257,-1.0723 -1.05539,-1.74289 -0.139035,-0.85433 -0.05659,-1.7047 0.120384,-2.51933 0.525327,-2.51631 1.727749,-4.7039 2.776814,-6.31177 -9e-6,1e-5 0.01595,-0.0244 0.01594,-0.0244 0.911369,-1.40816 2.19778,-3.10858 3.922047,-4.55228 1.038062,-0.93305 2.294691,-1.76268 3.784005,-1.80848 0.42483,-0.009 0.85156,0.11477 1.21664,0.36125 1.02991,0.90507 0.94424,2.11447 0.80709,2.7361 -0.15264,0.69181 -0.41178,1.02888 -0.52738,1.02894 z"
       style="opacity:1;fill:#d5635c;fill-opacity:1;stroke:#cb3c33;stroke-width:0.37383816;stroke-linecap:round;stroke-miterlimit:4;stroke-dasharray:none;stroke-opacity:1"
       id="path1004-0-2-9" />
    <path
       inkscape:original-d="m 119.15845,107.85475 c -0.90878,-0.75402 -1.76111,-1.15893 -2.44588,-1.10757 -0.18233,0.0137 -0.35095,0.0586 -0.50764,0.13844 -1.67141,0.85163 -1.13745,5.25611 1.19525,9.83431 2.33271,4.5782 5.57857,7.59858 7.24997,6.74695 1.60737,-0.81899 1.17354,-4.92318 -0.93682,-9.3082"
       inkscape:path-effect="#path-effect1650-6-2-0-8"
       inkscape:connector-curvature="0"
       d="m 119.15845,107.85475 c -0.19533,0.12765 -1.23787,-0.89726 -2.40807,-0.6039 -0.11014,0.0219 -0.21677,0.0599 -0.29964,0.1172 -0.24543,0.11824 -0.36897,0.47831 -0.48586,0.91871 -0.12396,0.60734 -0.0704,1.27017 0.0367,2.03348 0.31318,2.10212 1.13581,4.11429 2.12064,6.03182 0.56087,1.07502 1.09984,1.97788 1.64893,2.7689 0.53975,0.77757 1.21884,1.63066 2.05696,2.41234 0.51111,0.46731 1.04144,0.9124 1.61419,1.14232 0.36947,0.11374 0.71426,0.22175 0.85326,0.0953 0,0 0,0 0,0 0.17955,-0.0258 0.31673,-0.34109 0.453,-0.683 0.1747,-0.55617 0.16641,-1.21556 0.1298,-1.86654 -0.20689,-3.18392 -1.41973,-5.69507 -1.16499,-6.06267 0.27646,0.0131 2.04961,2.36696 2.53814,5.92234 0.1044,0.71853 0.1416,1.54155 -0.0596,2.39381 -0.11724,0.60552 -0.48903,1.2505 -1.19336,1.6758 0,0 0,0 0,0 -0.7833,0.34587 -1.56835,0.27133 -2.15657,-0.004 -0.858,-0.35161 -1.55444,-0.89105 -2.12073,-1.42415 -0.95189,-0.8805 -1.7073,-1.81889 -2.29738,-2.66322 -0.5976,-0.85509 -1.17787,-1.83326 -1.744,-2.97251 -1.01711,-2.01588 -1.84529,-4.24785 -2.07084,-6.59761 -0.0875,-0.84439 -0.0723,-1.68661 0.15283,-2.49833 0.15366,-0.65686 0.57591,-1.25389 1.20179,-1.57897 0.24038,-0.10749 0.48361,-0.15529 0.71185,-0.15894 2.13947,0.0526 2.41097,1.74808 2.48297,1.60164 z"
       style="fill:#6682e0;fill-opacity:1;stroke:#4063d8;stroke-width:0.37383816;stroke-linecap:square;stroke-linejoin:round;stroke-miterlimit:1;stroke-dasharray:none;stroke-dashoffset:0;stroke-opacity:1"
       id="path1000-5-5-8-8" />
    <path
       inkscape:original-d="m 128.58817,117.69367 c 1.32825,-0.51526 2.145,-1.22054 2.18745,-2.03055 0.0982,-1.87329 -3.97858,-3.60758 -9.10977,-3.87649 -0.48105,-0.0252 -0.95408,-0.0385 -1.41677,-0.0369 -4.4727,0.0151 -7.96399,1.242 -8.05297,2.93967 -0.0423,0.80842 0.69416,1.5923 1.95672,2.24283"
       inkscape:path-effect="#path-effect1662-2-9-8"
       inkscape:connector-curvature="0"
       d="m 128.58817,117.69367 c -0.019,-0.14677 0.25411,-0.36393 0.69584,-0.71858 0.39017,-0.31324 1.05576,-0.82522 0.91186,-1.34236 0.0201,-0.25617 -0.2282,-0.53134 -0.54216,-0.84661 -0.46143,-0.40848 -1.06316,-0.69136 -1.76389,-0.97678 -2.13897,-0.84863 -4.43546,-1.10146 -6.26478,-1.20342 0,0 -0.002,-1.2e-4 -0.002,-1.2e-4 0,0 0,0 0,0 -0.42371,-0.0221 -0.88814,-0.0377 -1.37105,-0.037 0,0 0,0 0,0 -1.75121,0.009 -3.65488,0.13687 -5.41882,0.72459 -1.11489,0.52514 -2.08142,0.7801 -2.03655,1.42747 -0.19644,0.47351 0.37046,1.03047 0.71934,1.38682 0.39284,0.40124 0.64556,0.65675 0.63702,0.82459 -0.0962,0.0791 -0.49891,0.0699 -1.0586,-0.20614 -0.51219,-0.25258 -1.36152,-0.85822 -1.47374,-2.06685 0.14424,-1.42452 1.39526,-2.39763 2.71001,-2.75824 1.98181,-0.77079 4.07946,-0.96272 5.91575,-0.96886 0,0 0,0 0,0 0.52146,-0.004 1.01552,0.0118 1.46248,0.0353 0,0 0,0 0,0 0,0 0.002,1.1e-4 0.002,1.1e-4 1.91472,0.0945 4.40762,0.41003 6.75992,1.47606 0.76637,0.33997 1.49779,0.77519 2.09926,1.38696 0.49615,0.46313 0.80707,1.13932 0.77511,1.86239 -0.24135,1.21899 -1.18969,1.73256 -1.72475,1.9244 -0.59402,0.21298 -0.97272,0.1716 -1.03237,0.0763 z"
       style="fill:#60ad51;fill-opacity:1;stroke:#389826;stroke-width:0.37383816;stroke-linecap:round;stroke-miterlimit:4;stroke-dasharray:none;stroke-opacity:1"
       id="path1002-5-2-4" />
    <path
       inkscape:original-d="m 127.15294,110.64675 c 0.312,-1.58792 0.13752,-2.79304 -0.59993,-3.27195 -0.24582,-0.15963 -0.54053,-0.22949 -0.87221,-0.2169 -1.79109,0.068 -4.68109,2.53414 -7.04231,6.1701 -2.79847,4.30928 -3.79298,8.62804 -2.21975,9.6497 0.74679,0.48498 1.93679,0.14119 3.28117,-0.81683"
       inkscape:path-effect="#path-effect1678-4-9-7-2"
       inkscape:label="path3773"
       inkscape:connector-curvature="0"
       d="m 127.15294,110.64675 c -0.1409,-0.0667 -0.17417,-0.45627 -0.23039,-1.09815 -0.0497,-0.5669 -0.1115,-1.52058 -0.69524,-1.67225 0,0 0,0 0,0 -0.12629,-0.0729 -0.31458,-0.0863 -0.52194,-0.0713 0,0 0,0 0,0 -0.9586,0.0458 -1.78991,0.81174 -2.82728,1.68027 -1.51121,1.36573 -2.68223,2.95552 -3.55164,4.28943 -10e-6,0 -0.015,0.0232 -0.015,0.0233 -0.99174,1.54082 -2.11961,3.54445 -2.6751,5.7596 -0.17567,0.72937 -0.29817,1.38322 -0.23507,1.99247 0.0737,0.42775 0.14757,0.78521 0.35683,0.905 0.36035,0.46629 1.2295,0.14865 1.77859,-0.0387 0.61831,-0.21097 1.00656,-0.34434 1.1632,-0.25554 0.026,0.12721 -0.20082,0.52662 -0.7771,0.9498 -0.52629,0.38646 -1.58932,0.93676 -2.83002,0.36894 -0.61601,-0.41344 -0.97626,-1.0723 -1.05539,-1.74289 -0.13903,-0.85433 -0.0566,-1.70469 0.12039,-2.51932 0.52532,-2.51632 1.72775,-4.70392 2.77682,-6.31179 -1e-5,2e-5 0.0159,-0.0244 0.0159,-0.0244 0.91137,-1.40816 2.19778,-3.10859 3.92205,-4.5523 1.03807,-0.93305 2.2947,-1.76268 3.78402,-1.80848 0.42483,-0.009 0.85155,0.11479 1.21662,0.36125 1.02992,0.90508 0.94425,2.11447 0.8071,2.73611 -0.15264,0.69181 -0.41178,1.02888 -0.52738,1.02894 z"
       style="opacity:1;fill:#d5635c;fill-opacity:1;stroke:#cb3c33;stroke-width:0.37383816;stroke-linecap:round;stroke-miterlimit:4;stroke-dasharray:none;stroke-opacity:1"
       id="path1004-0-2-4-6" />
    <path
       inkscape:original-d="m 144.16252,108.00991 c -0.90878,-0.75402 -1.76111,-1.15893 -2.44588,-1.10757 -0.18233,0.0137 -0.35094,0.0586 -0.50764,0.13844 -1.6714,0.85163 -1.13745,5.25611 1.19525,9.8343 2.33271,4.57821 5.57857,7.59859 7.24997,6.74696 1.60737,-0.819 1.17354,-4.92319 -0.93682,-9.30821"
       inkscape:path-effect="#path-effect1650-6-2-0-2-1"
       inkscape:connector-curvature="0"
       d="m 144.16252,108.00991 c -0.19533,0.12765 -1.23787,-0.89726 -2.40807,-0.6039 -0.11013,0.0219 -0.21676,0.0599 -0.29964,0.1172 -0.24543,0.11824 -0.36896,0.47831 -0.48586,0.91871 -0.12396,0.60734 -0.0704,1.27017 0.0367,2.03348 0.31317,2.10212 1.1358,4.11429 2.12063,6.03181 0.56087,1.07502 1.09984,1.97789 1.64893,2.76891 0.53975,0.77757 1.21885,1.63066 2.05696,2.41234 0.51111,0.46731 1.04144,0.9124 1.61419,1.14232 0.36947,0.11374 0.71426,0.22175 0.85326,0.0952 0,0 0,0 0,0 0.17955,-0.0258 0.31673,-0.34109 0.453,-0.683 0.1747,-0.55618 0.16641,-1.21557 0.1298,-1.86655 -0.20689,-3.18392 -1.41973,-5.69507 -1.16499,-6.06267 0.27646,0.0131 2.04961,2.36696 2.53814,5.92234 0.1044,0.71853 0.1416,1.54156 -0.0596,2.39381 -0.11724,0.60553 -0.48903,1.25051 -1.19336,1.67581 0,0 0,0 0,0 -0.7833,0.34587 -1.56835,0.27133 -2.15657,-0.004 -0.858,-0.35161 -1.55444,-0.89105 -2.12073,-1.42415 -0.95189,-0.8805 -1.70729,-1.81888 -2.29738,-2.66322 -0.5976,-0.85509 -1.17787,-1.83327 -1.744,-2.97252 -1.01711,-2.01588 -1.84529,-4.24785 -2.07083,-6.5976 -0.0875,-0.84439 -0.0723,-1.68661 0.15283,-2.49833 0.15365,-0.65686 0.5759,-1.25389 1.20179,-1.57897 0.24036,-0.10749 0.48359,-0.15529 0.71184,-0.15894 2.13947,0.0526 2.41097,1.74808 2.48297,1.60164 z"
       style="fill:#6682e0;fill-opacity:1;stroke:#4063d8;stroke-width:0.37383816;stroke-linecap:square;stroke-linejoin:round;stroke-miterlimit:1;stroke-dasharray:none;stroke-dashoffset:0;stroke-opacity:1"
       id="path1000-5-5-8-7-9" />
    <path
       inkscape:original-d="m 153.59225,117.84883 c 1.32825,-0.51527 2.14499,-1.22055 2.18745,-2.03055 0.0982,-1.87329 -3.97858,-3.60758 -9.10978,-3.8765 -0.48105,-0.0252 -0.95407,-0.0385 -1.41676,-0.0369 -4.47271,0.0151 -7.964,1.24201 -8.05297,2.93968 -0.0423,0.80842 0.69415,1.5923 1.95671,2.24283"
       inkscape:path-effect="#path-effect1662-2-9-6-1"
       inkscape:connector-curvature="0"
       d="m 153.59225,117.84883 c -0.019,-0.14677 0.25411,-0.36394 0.69584,-0.71858 0.39017,-0.31324 1.05575,-0.82522 0.91186,-1.34236 0.0201,-0.25617 -0.2282,-0.53134 -0.54216,-0.84661 -0.46143,-0.40848 -1.06316,-0.69136 -1.76389,-0.97678 -2.13897,-0.84864 -4.43547,-1.10147 -6.26479,-1.20343 0,0 -0.002,-1.2e-4 -0.002,-1.2e-4 0,0 0,0 0,0 -0.4237,-0.0221 -0.88814,-0.0377 -1.37104,-0.037 0,0 0,0 0,0 -1.75122,0.009 -3.65488,0.13687 -5.41882,0.72459 -1.11489,0.52515 -2.08142,0.78011 -2.03655,1.42748 -0.19644,0.47351 0.37045,1.03047 0.71934,1.38683 0.39283,0.40124 0.64555,0.65675 0.63702,0.82458 -0.0962,0.079 -0.49892,0.0699 -1.05861,-0.20614 -0.51218,-0.25258 -1.36151,-0.85822 -1.47373,-2.06685 0.14423,-1.42452 1.39526,-2.39763 2.71,-2.75825 1.98182,-0.77078 4.07947,-0.96272 5.91576,-0.96886 0,0 0,0 0,0 0.52146,-0.004 1.01551,0.0118 1.46247,0.0353 0,0 0,0 0,0 0,0 0.002,1.1e-4 0.002,1.1e-4 1.91473,0.0945 4.40762,0.41004 6.75993,1.47607 0.76637,0.33996 1.49779,0.77519 2.09926,1.38696 0.49615,0.46313 0.80707,1.13933 0.77511,1.86239 -0.24136,1.21899 -1.1897,1.73256 -1.72475,1.9244 -0.59402,0.21298 -0.97272,0.1716 -1.03237,0.0763 z"
       style="fill:#60ad51;fill-opacity:1;stroke:#389826;stroke-width:0.37383816;stroke-linecap:round;stroke-miterlimit:4;stroke-dasharray:none;stroke-opacity:1"
       id="path1002-5-2-0-9" />
    <path
       inkscape:original-d="m 152.15702,110.80191 c 0.31199,-1.58792 0.13752,-2.79304 -0.59993,-3.27195 -0.24582,-0.15964 -0.54053,-0.22949 -0.87221,-0.2169 -1.7911,0.068 -4.68109,2.53413 -7.04231,6.17009 -2.79848,4.30929 -3.79298,8.62805 -2.21976,9.64971 0.7468,0.48497 1.9368,0.14119 3.28118,-0.81683"
       inkscape:path-effect="#path-effect1678-4-9-7-8-6"
       inkscape:label="path3773"
       inkscape:connector-curvature="0"
       d="m 152.15702,110.80191 c -0.1409,-0.0667 -0.17417,-0.45627 -0.23039,-1.09815 -0.0497,-0.5669 -0.1115,-1.52059 -0.69525,-1.67226 0,0 0,0 0,0 -0.12627,-0.0728 -0.31455,-0.0862 -0.52193,-0.0713 0,0 0,0 0,0 -0.9586,0.0458 -1.78991,0.81174 -2.82729,1.68026 -1.5112,1.36573 -2.68222,2.95552 -3.55163,4.28943 -1e-5,0 -0.015,0.0233 -0.015,0.0233 -0.99173,1.54081 -2.11959,3.54442 -2.67508,5.75955 -0.17567,0.72937 -0.29816,1.38322 -0.23507,1.99247 0.0737,0.42775 0.14758,0.78521 0.35683,0.905 0.36037,0.46628 1.22957,0.14862 1.77866,-0.0387 0.61833,-0.21098 1.00659,-0.34436 1.16324,-0.25556 0.026,0.12721 -0.20083,0.52663 -0.77713,0.94983 -0.52629,0.38648 -1.58936,0.93681 -2.8301,0.36899 -0.61601,-0.41345 -0.97626,-1.07231 -1.05539,-1.7429 -0.13903,-0.85433 -0.0566,-1.7047 0.12039,-2.51932 0.52532,-2.51631 1.72773,-4.70388 2.77679,-6.31174 -1e-5,2e-5 0.016,-0.0245 0.016,-0.0244 0.91137,-1.40817 2.19778,-3.10859 3.92205,-4.55229 1.03807,-0.93305 2.2947,-1.76268 3.78402,-1.80848 0.42481,-0.009 0.85154,0.11478 1.21663,0.36126 1.02991,0.90507 0.94424,2.11447 0.80708,2.7361 -0.15263,0.69181 -0.41177,1.02887 -0.52737,1.02894 z"
       style="opacity:1;fill:#aa79c1;fill-opacity:1;stroke:#9558b2;stroke-width:0.37383816;stroke-linecap:round;stroke-miterlimit:4;stroke-dasharray:none;stroke-opacity:1"
       id="path1004-0-2-4-7-7" />
  </g>
</svg>
